<svg width="313" height="87" viewBox="0 0 313 87" fill="none" xmlns="http://www.w3.org/2000/svg">
<path d="M57.035 32.37C56.7783 31.9667 56.54 31.4167 56.32 30.72C56.1 30.0233 55.99 29.29 55.99 28.52C55.99 27.09 56.3017 26.0633 56.925 25.44C57.585 24.8167 58.4283 24.505 59.455 24.505H83.435C83.6917 24.9083 83.93 25.4583 84.15 26.155C84.37 26.8517 84.48 27.585 84.48 28.355C84.48 29.785 84.15 30.8117 83.49 31.435C82.8667 32.0583 82.0417 32.37 81.015 32.37H74.91V57.78C74.5067 57.89 73.865 58 72.985 58.11C72.1417 58.22 71.2983 58.275 70.455 58.275C69.6117 58.275 68.86 58.2017 68.2 58.055C67.5767 57.945 67.045 57.725 66.605 57.395C66.165 57.065 65.835 56.6067 65.615 56.02C65.395 55.4333 65.285 54.6633 65.285 53.71V32.37H57.035ZM99.2802 58.88C97.1168 58.88 95.1002 58.5867 93.2302 58C91.3968 57.3767 89.7835 56.46 88.3902 55.25C87.0335 54.04 85.9518 52.5183 85.1452 50.685C84.3752 48.8517 83.9902 46.7067 83.9902 44.25C83.9902 41.83 84.3752 39.7583 85.1452 38.035C85.9518 36.275 86.9968 34.845 88.2802 33.745C89.5635 32.6083 91.0302 31.7833 92.6802 31.27C94.3302 30.72 96.0168 30.445 97.7402 30.445C99.6835 30.445 101.443 30.7383 103.02 31.325C104.633 31.9117 106.008 32.7183 107.145 33.745C108.318 34.7717 109.217 36 109.84 37.43C110.5 38.86 110.83 40.4183 110.83 42.105C110.83 43.3517 110.482 44.305 109.785 44.965C109.088 45.625 108.117 46.0467 106.87 46.23L93.2852 48.265C93.6885 49.475 94.5135 50.3917 95.7602 51.015C97.0068 51.6017 98.4368 51.895 100.05 51.895C101.553 51.895 102.965 51.7117 104.285 51.345C105.642 50.9417 106.742 50.4833 107.585 49.97C108.172 50.3367 108.667 50.85 109.07 51.51C109.473 52.17 109.675 52.8667 109.675 53.6C109.675 55.25 108.905 56.4783 107.365 57.285C106.192 57.9083 104.872 58.33 103.405 58.55C101.938 58.77 100.563 58.88 99.2802 58.88ZM97.7402 37.265C96.8602 37.265 96.0902 37.4117 95.4302 37.705C94.8068 37.9983 94.2935 38.3833 93.8902 38.86C93.4868 39.3 93.1752 39.8133 92.9552 40.4C92.7718 40.95 92.6618 41.5183 92.6252 42.105L102.03 40.565C101.92 39.8317 101.517 39.0983 100.82 38.365C100.123 37.6317 99.0968 37.265 97.7402 37.265ZM98.7302 17.08C100.637 17.08 102.012 17.4467 102.855 18.18C103.735 18.9133 104.175 19.7933 104.175 20.82C104.175 21.7733 103.918 22.58 103.405 23.24C102.892 23.8633 102.048 24.4867 100.875 25.11L93.7802 28.85C92.6802 28.74 91.7452 28.3 90.9752 27.53C90.2052 26.76 89.8202 25.935 89.8202 25.055C89.8202 24.615 89.9302 24.175 90.1502 23.735C90.3702 23.295 90.7368 22.8917 91.2502 22.525L98.7302 17.08ZM137.934 50.025C137.934 52.8117 136.889 54.9933 134.799 56.57C132.709 58.1467 129.629 58.935 125.559 58.935C124.019 58.935 122.589 58.825 121.269 58.605C119.949 58.385 118.813 58.055 117.859 57.615C116.943 57.1383 116.209 56.5517 115.659 55.855C115.146 55.1583 114.889 54.3333 114.889 53.38C114.889 52.5 115.073 51.7667 115.439 51.18C115.806 50.5567 116.246 50.0433 116.759 49.64C117.823 50.2267 119.033 50.7583 120.389 51.235C121.783 51.675 123.378 51.895 125.174 51.895C126.311 51.895 127.173 51.73 127.759 51.4C128.383 51.07 128.694 50.63 128.694 50.08C128.694 49.5667 128.474 49.1633 128.034 48.87C127.594 48.5767 126.861 48.3383 125.834 48.155L124.184 47.825C120.994 47.2017 118.611 46.23 117.034 44.91C115.494 43.5533 114.724 41.6283 114.724 39.135C114.724 37.7783 115.018 36.55 115.604 35.45C116.191 34.35 117.016 33.4333 118.079 32.7C119.143 31.9667 120.408 31.3983 121.874 30.995C123.378 30.5917 125.028 30.39 126.824 30.39C128.181 30.39 129.446 30.5 130.619 30.72C131.829 30.9033 132.874 31.1967 133.754 31.6C134.634 32.0033 135.331 32.535 135.844 33.195C136.358 33.8183 136.614 34.57 136.614 35.45C136.614 36.2933 136.449 37.0267 136.119 37.65C135.826 38.2367 135.441 38.7317 134.964 39.135C134.671 38.9517 134.231 38.7683 133.644 38.585C133.058 38.365 132.416 38.1817 131.719 38.035C131.023 37.8517 130.308 37.705 129.574 37.595C128.878 37.485 128.236 37.43 127.649 37.43C126.439 37.43 125.504 37.5767 124.844 37.87C124.184 38.1267 123.854 38.5483 123.854 39.135C123.854 39.5383 124.038 39.8683 124.404 40.125C124.771 40.3817 125.468 40.62 126.494 40.84L128.199 41.225C131.719 42.0317 134.213 43.15 135.679 44.58C137.183 45.9733 137.934 47.7883 137.934 50.025ZM168.58 53.16C168.396 54.8833 167.883 56.2033 167.04 57.12C166.233 58.0367 165.041 58.495 163.465 58.495C162.291 58.495 161.246 58.22 160.33 57.67C159.413 57.0833 158.423 56.1117 157.36 54.755L151.915 47.935V57.945C151.511 58.0183 150.906 58.11 150.1 58.22C149.33 58.3667 148.541 58.44 147.735 58.44C146.928 58.44 146.195 58.385 145.535 58.275C144.911 58.165 144.38 57.945 143.94 57.615C143.5 57.285 143.151 56.845 142.895 56.295C142.675 55.7083 142.565 54.9567 142.565 54.04V22.195C142.968 22.085 143.555 21.975 144.325 21.865C145.131 21.7183 145.938 21.645 146.745 21.645C147.551 21.645 148.266 21.7 148.89 21.81C149.55 21.92 150.1 22.14 150.54 22.47C150.98 22.8 151.31 23.2583 151.53 23.845C151.786 24.395 151.915 25.1283 151.915 26.045V40.565L161.375 30.885C163.281 30.885 164.803 31.3067 165.94 32.15C167.113 32.9933 167.7 34.0567 167.7 35.34C167.7 35.89 167.608 36.4033 167.425 36.88C167.241 37.32 166.948 37.7783 166.545 38.255C166.178 38.7317 165.683 39.245 165.06 39.795C164.473 40.3083 163.776 40.9133 162.97 41.61L159.78 44.36L168.58 53.16ZM172.743 23.845C172.743 22.4517 173.201 21.2783 174.118 20.325C175.071 19.3717 176.318 18.895 177.858 18.895C179.398 18.895 180.626 19.3717 181.543 20.325C182.496 21.2783 182.973 22.4517 182.973 23.845C182.973 25.2383 182.496 26.4117 181.543 27.365C180.626 28.3183 179.398 28.795 177.858 28.795C176.318 28.795 175.071 28.3183 174.118 27.365C173.201 26.4117 172.743 25.2383 172.743 23.845ZM182.533 57.945C182.129 58.0183 181.524 58.11 180.718 58.22C179.948 58.3667 179.159 58.44 178.353 58.44C177.546 58.44 176.813 58.385 176.153 58.275C175.529 58.165 174.998 57.945 174.558 57.615C174.118 57.285 173.769 56.845 173.513 56.295C173.293 55.7083 173.183 54.9567 173.183 54.04V31.655C173.586 31.5817 174.173 31.49 174.943 31.38C175.749 31.2333 176.556 31.16 177.363 31.16C178.169 31.16 178.884 31.215 179.508 31.325C180.168 31.435 180.718 31.655 181.158 31.985C181.598 32.315 181.928 32.7733 182.148 33.36C182.404 33.91 182.533 34.6433 182.533 35.56V57.945ZM199.925 52.06C200.548 52.06 201.227 52.005 201.96 51.895C202.73 51.7483 203.298 51.565 203.665 51.345V46.945L199.705 47.275C198.678 47.3483 197.835 47.5683 197.175 47.935C196.515 48.3017 196.185 48.8517 196.185 49.585C196.185 50.3183 196.46 50.9233 197.01 51.4C197.597 51.84 198.568 52.06 199.925 52.06ZM199.485 30.445C201.465 30.445 203.262 30.6467 204.875 31.05C206.525 31.4533 207.918 32.0767 209.055 32.92C210.228 33.7267 211.127 34.7717 211.75 36.055C212.373 37.3017 212.685 38.7867 212.685 40.51V52.83C212.685 53.7833 212.41 54.5717 211.86 55.195C211.347 55.7817 210.723 56.295 209.99 56.735C207.607 58.165 204.252 58.88 199.925 58.88C197.982 58.88 196.222 58.6967 194.645 58.33C193.105 57.9633 191.767 57.4133 190.63 56.68C189.53 55.9467 188.668 55.0117 188.045 53.875C187.458 52.7383 187.165 51.4183 187.165 49.915C187.165 47.385 187.917 45.4417 189.42 44.085C190.923 42.7283 193.252 41.885 196.405 41.555L203.61 40.785V40.4C203.61 39.3367 203.133 38.585 202.18 38.145C201.263 37.6683 199.925 37.43 198.165 37.43C196.772 37.43 195.415 37.5767 194.095 37.87C192.775 38.1633 191.583 38.53 190.52 38.97C190.043 38.64 189.64 38.145 189.31 37.485C188.98 36.7883 188.815 36.0733 188.815 35.34C188.815 34.3867 189.035 33.635 189.475 33.085C189.952 32.4983 190.667 32.0033 191.62 31.6C192.683 31.1967 193.93 30.9033 195.36 30.72C196.827 30.5367 198.202 30.445 199.485 30.445ZM235.342 41.06C235.342 39.9233 235.012 39.0983 234.352 38.585C233.729 38.035 232.867 37.76 231.767 37.76C231.034 37.76 230.3 37.8517 229.567 38.035C228.87 38.2183 228.265 38.4933 227.752 38.86V57.945C227.385 58.055 226.799 58.165 225.992 58.275C225.222 58.385 224.415 58.44 223.572 58.44C222.765 58.44 222.032 58.385 221.372 58.275C220.749 58.165 220.217 57.945 219.777 57.615C219.337 57.285 218.989 56.845 218.732 56.295C218.512 55.7083 218.402 54.9567 218.402 54.04V37.54C218.402 36.55 218.604 35.7433 219.007 35.12C219.447 34.4967 220.034 33.9283 220.767 33.415C222.014 32.535 223.572 31.82 225.442 31.27C227.349 30.72 229.457 30.445 231.767 30.445C235.91 30.445 239.1 31.3617 241.337 33.195C243.574 34.9917 244.692 37.5033 244.692 40.73V57.945C244.325 58.055 243.739 58.165 242.932 58.275C242.162 58.385 241.355 58.44 240.512 58.44C239.705 58.44 238.972 58.385 238.312 58.275C237.689 58.165 237.157 57.945 236.717 57.615C236.277 57.285 235.929 56.845 235.672 56.295C235.452 55.7083 235.342 54.9567 235.342 54.04V41.06ZM249.312 44.635C249.312 42.215 249.679 40.125 250.412 38.365C251.146 36.5683 252.154 35.0833 253.437 33.91C254.757 32.7367 256.279 31.875 258.002 31.325C259.762 30.7383 261.651 30.445 263.667 30.445C264.401 30.445 265.116 30.5183 265.812 30.665C266.509 30.775 267.077 30.9217 267.517 31.105V22.195C267.884 22.085 268.471 21.975 269.277 21.865C270.084 21.7183 270.909 21.645 271.752 21.645C272.559 21.645 273.274 21.7 273.897 21.81C274.557 21.92 275.107 22.14 275.547 22.47C275.987 22.8 276.317 23.2583 276.537 23.845C276.757 24.395 276.867 25.1283 276.867 26.045V52.115C276.867 53.8383 276.061 55.2133 274.447 56.24C273.384 56.9367 272.009 57.5417 270.322 58.055C268.636 58.605 266.692 58.88 264.492 58.88C262.109 58.88 259.964 58.55 258.057 57.89C256.187 57.23 254.592 56.2767 253.272 55.03C251.989 53.7833 250.999 52.2983 250.302 50.575C249.642 48.815 249.312 46.835 249.312 44.635ZM264.932 37.76C262.952 37.76 261.431 38.3283 260.367 39.465C259.304 40.6017 258.772 42.325 258.772 44.635C258.772 46.9083 259.267 48.6317 260.257 49.805C261.247 50.9417 262.677 51.51 264.547 51.51C265.207 51.51 265.794 51.4183 266.307 51.235C266.857 51.015 267.279 50.7767 267.572 50.52V38.42C266.839 37.98 265.959 37.76 264.932 37.76ZM310.359 44.635C310.359 46.9083 310.011 48.9433 309.314 50.74C308.617 52.5 307.627 53.985 306.344 55.195C305.097 56.405 303.594 57.3217 301.834 57.945C300.074 58.5683 298.112 58.88 295.949 58.88C293.786 58.88 291.824 58.55 290.064 57.89C288.304 57.23 286.782 56.295 285.499 55.085C284.252 53.8383 283.281 52.335 282.584 50.575C281.887 48.815 281.539 46.835 281.539 44.635C281.539 42.4717 281.887 40.51 282.584 38.75C283.281 36.99 284.252 35.505 285.499 34.295C286.782 33.0483 288.304 32.095 290.064 31.435C291.824 30.775 293.786 30.445 295.949 30.445C298.112 30.445 300.074 30.7933 301.834 31.49C303.594 32.15 305.097 33.1033 306.344 34.35C307.627 35.56 308.617 37.045 309.314 38.805C310.011 40.565 310.359 42.5083 310.359 44.635ZM291.109 44.635C291.109 46.8717 291.531 48.595 292.374 49.805C293.254 50.9783 294.464 51.565 296.004 51.565C297.544 51.565 298.717 50.96 299.524 49.75C300.367 48.54 300.789 46.835 300.789 44.635C300.789 42.435 300.367 40.7483 299.524 39.575C298.681 38.365 297.489 37.76 295.949 37.76C294.409 37.76 293.217 38.365 292.374 39.575C291.531 40.7483 291.109 42.435 291.109 44.635Z" fill="white"/>
<rect y="18" width="50" height="50" rx="10" fill="#AEBBFF"/>
<path fill-rule="evenodd" clip-rule="evenodd" d="M48.507 34.5385L41.1492 25.7698L17.1907 45.8734L8.96071 36.0653L1 42.7451L9.22999 52.5532L9.18709 52.5892L16.5449 61.3579L48.507 34.5385Z" fill="#3051FF"/>
</svg>
