<svg width="224" height="202" viewBox="0 0 224 202" fill="none" xmlns="http://www.w3.org/2000/svg">
<path d="M2.87891 51.9014H111.798V199.207H8.63677C5.45679 199.207 2.87891 196.629 2.87891 193.449V51.9014Z" fill="white"/>
<path d="M111.799 51.4216H221.678V192.489C221.678 196.199 218.671 199.207 214.961 199.207H111.799V51.4216Z" fill="white"/>
<path d="M111.799 48.063H221.678V186.732C221.678 191.766 217.596 195.848 212.561 195.848H111.799V48.063Z" fill="#FFD7E5"/>
<path d="M2.87891 48.5427H111.798V195.848H8.63677C5.45679 195.848 2.87891 193.27 2.87891 190.09V48.5427Z" fill="#D4FBFF"/>
<path fill-rule="evenodd" clip-rule="evenodd" d="M17.2736 12.5444C15.4671 13.3534 12.1851 12.3381 11.5157 14.1129C11.2749 14.752 0.118908 20.0065 0.048436 49.4888C0.0157223 63.1746 0 80.2245 0 100.876C0 178.631 0.111799 195.173 0.64632 196.45C1.52919 198.558 4.87691 201.477 6.80867 201.822C7.68243 201.978 55.5058 202.044 113.083 201.969L217.769 201.832L219.758 200.886C219.758 200.886 221.743 199.213 222.55 198.217L223.357 196.226V181.036V165.846L222.184 165.68C219.882 165.355 219.758 166.134 219.758 181.015V194.801C219.758 194.801 219.476 196.004 218.799 196.808C218.122 197.612 216.502 197.947 215.529 198.217C214.375 198.537 196.378 198.709 163.739 198.711L113.718 198.713V124.101V49.4888H166.738H219.758V91.9189C219.758 129.852 219.839 134.429 220.512 135.103C221.414 136.005 222.239 136.063 223.021 135.281C223.649 134.653 223.804 82.5095 223.54 49.4888C223.421 34.6166 209.246 27.851 208.962 27.1908C208.155 25.3089 210.794 25.9624 208.962 25.2715C196.481 30.3849 198.335 21.6805 159.541 21.6728C122.434 21.6651 99.2968 21.0361 97.8837 20.7132C94.5225 19.945 86.2302 22.1648 82.5294 16.8235C80.6418 14.0995 83.5696 9.12785 82.5294 8.23778C78.7733 5.02298 83.6262 7.49743 42.9441 7.51806C13.2604 7.53342 18.4367 12.0238 17.2736 12.5444ZM29.2922 14.2439C33.7353 18.5009 28.3397 25.4382 23.0267 22.2997C19.5815 20.2643 19.9918 14.5693 23.6974 12.9906C25.3072 12.3045 27.8661 12.8779 29.2922 14.2439ZM48.2701 14.1739C49.6443 15.5481 49.9015 16.1474 49.9015 17.9755C49.9015 22.5055 44.8154 24.813 41.3179 21.8702C37.5163 18.6713 39.9538 12.5502 45.0313 12.5444C46.2208 12.543 47.0629 12.9666 48.2701 14.1739ZM67.5239 14.1129C68.3257 14.9142 68.8017 16.0342 68.9682 17.511C69.1966 19.5412 69.0833 19.8468 67.5239 21.4062C63.8921 25.038 58.5383 22.7445 58.5383 17.5566C58.5383 16.1925 58.9125 15.431 60.2306 14.1129C61.79 12.5535 62.0957 12.4403 64.1258 12.6687C65.6027 12.8352 66.7226 13.3112 67.5239 14.1129ZM204.966 33.0093C206.043 33.9833 206.108 36.2011 205.09 37.2192C204.409 37.8992 195.392 37.9731 112.991 37.9731H21.6462L20.8996 36.9064C19.8944 35.4713 19.9592 34.3278 21.1122 33.1748C22.0651 32.2219 22.7114 32.2152 113.08 32.2152C197.091 32.2152 204.156 32.2761 204.966 33.0093ZM109.879 83.3061V117.124L100.215 117.254C91.6177 117.369 90.4915 117.476 90.0208 118.223C89.6351 118.836 89.6351 119.29 90.0208 119.903C90.4915 120.65 91.6177 120.757 100.215 120.872L109.879 121.002V125.788V130.573L70.2263 130.696C33.0607 130.811 30.5402 130.871 30.0436 131.658C29.6573 132.271 29.6573 132.725 30.0436 133.338C30.5402 134.125 33.0607 134.185 70.2263 134.3L109.879 134.423V145.93V157.438L90.6187 157.563C72.8768 157.679 71.3159 157.755 70.8284 158.528C70.4422 159.141 70.4422 159.595 70.8284 160.208C71.3159 160.981 72.8768 161.057 90.6187 161.173L109.879 161.298V166.091V170.884H96.9634C89.8596 170.884 83.7059 171.015 83.2885 171.175C82.2875 171.559 82.2875 174.047 83.2885 174.431C83.7059 174.591 89.8596 174.722 96.9634 174.722H109.879V186.718V198.713L59.8578 198.711C27.2189 198.709 9.2217 198.537 8.06773 198.217C7.09513 197.947 5.71516 197.612 5.03813 196.808C4.3611 196.004 3.83858 194.801 3.83858 194.801V122.145V49.4888H56.8589H109.879V83.3061ZM51.8558 56.8838C51.0271 57.8823 40.7849 90.4449 40.7849 92.0811C40.7849 93.772 42.5405 94.8128 44.278 94.1525C45.2314 93.7898 46.1195 91.3998 51.0056 76.0503C54.1018 66.3238 56.6315 58.2191 56.6267 58.0397C56.5888 56.4793 52.9277 55.5921 51.8558 56.8838ZM125.609 58.7278C124.891 59.3203 124.081 60.4129 123.809 61.1556C123.511 61.9694 123.315 68.0761 123.316 76.5099C123.318 89.7094 123.373 90.6047 124.286 92.1018C126.157 95.1697 124.796 95.0719 165.539 95.0719C206.281 95.0719 204.92 95.1697 206.791 92.1018C207.704 90.6042 207.76 89.7094 207.761 76.4634C207.763 61.2521 207.589 60.0247 205.206 58.4634C204.056 57.71 200.925 57.6458 165.435 57.6482L126.913 57.6505L125.609 58.7278ZM203.349 62.0601C203.769 62.4809 203.924 66.2854 203.924 76.1808C203.924 87.8544 203.82 89.8293 203.171 90.4795C202.498 91.1517 198.424 91.2333 165.539 91.2333C132.653 91.2333 128.579 91.1517 127.907 90.4795C127.257 89.8293 127.153 87.8544 127.153 76.1808C127.153 66.2854 127.308 62.4809 127.729 62.0601C128.562 61.2267 202.515 61.2267 203.349 62.0601ZM31.1884 68.9897C17.1685 74.8301 16.9372 74.9424 16.384 76.1568C15.6148 77.8448 15.6974 78.9719 16.6738 80.111C17.6742 81.2775 35.0635 88.5103 36.2966 88.2728C36.7678 88.1821 37.4847 87.5022 37.8896 86.7623C38.5825 85.4961 38.5628 85.3655 37.5513 84.534C36.9602 84.0479 33.3438 82.4031 29.5143 80.8782C25.6849 79.3534 22.5516 77.9676 22.5516 77.7983C22.5516 77.6289 25.7367 76.2326 29.629 74.6953C38.6727 71.1239 39.5868 70.3625 37.4261 68.2018C36.1839 66.9596 36.0078 66.9816 31.1884 68.9897ZM59.8578 67.7604C58.8818 68.329 58.7235 70.7434 59.6179 71.4109C59.948 71.657 63.503 73.1406 67.5186 74.7082C71.5343 76.2758 74.8239 77.6663 74.8292 77.7983C74.8345 77.9302 71.3327 79.4417 67.0484 81.157C59.7474 84.0801 59.2484 84.3603 59.1035 85.6242C58.9255 87.1759 59.7172 88.3544 60.9374 88.3544C62.5006 88.3544 79.3985 81.1705 80.2502 80.1436C80.7123 79.587 81.0899 78.5314 81.0899 77.7983C81.0899 77.0651 80.7123 76.0229 80.2502 75.4822C79.5372 74.6468 62.22 67.2144 61.0866 67.2566C60.8726 67.2647 60.3199 67.4912 59.8578 67.7604ZM126.136 104.43C123.323 105.959 123.314 106.055 123.316 133.29C123.318 157.397 123.348 158.218 124.286 159.757C126.157 162.825 124.786 162.727 165.643 162.726C199.985 162.725 202.849 162.663 204.404 161.886C207.812 160.184 207.761 160.622 207.762 133.05C207.763 105.95 207.76 105.915 204.843 104.407C202.845 103.374 128.04 103.395 126.136 104.43ZM30.3291 117.715C29.5585 118.486 29.5935 119.776 30.403 120.448C30.8756 120.84 37.9544 120.956 55.9017 120.867C78.9619 120.751 80.7838 120.682 81.2751 119.903C81.6614 119.29 81.6614 118.836 81.2751 118.223C80.7838 117.444 78.9585 117.374 55.8273 117.259C36.846 117.165 30.771 117.273 30.3291 117.715ZM220.512 140.449C219.879 141.083 219.758 142.686 219.758 150.473C219.758 158.715 219.855 159.861 220.63 160.818C221.373 161.735 221.658 161.812 222.55 161.334C223.574 160.786 223.597 160.561 223.597 150.81C223.597 140.823 223.42 139.695 221.856 139.695C221.532 139.695 220.927 140.035 220.512 140.449ZM30.3315 158.018C29.5575 158.792 29.5925 160.081 30.4063 160.756C30.8737 161.144 35.4588 161.264 46.3081 161.174C60.2234 161.058 61.5991 160.974 62.0822 160.208C62.4685 159.595 62.4685 159.141 62.0822 158.528C61.5991 157.762 60.2201 157.678 46.2332 157.562C34.7194 157.467 30.7691 157.58 30.3315 158.018ZM30.3295 171.455C29.558 172.226 29.593 173.516 30.4039 174.189C30.8756 174.58 37.2678 174.697 53.2631 174.607C73.8091 174.492 75.5072 174.42 75.9971 173.643C76.3833 173.03 76.3833 172.576 75.9971 171.963C75.5072 171.186 73.8057 171.115 53.1887 170.999C36.2606 170.904 30.7705 171.014 30.3295 171.455ZM127.252 171.457C126.483 172.225 126.518 173.516 127.326 174.187C127.801 174.581 138.251 174.695 165.779 174.605C201.181 174.49 203.613 174.429 204.11 173.643C204.496 173.03 204.496 172.576 204.11 171.963C203.613 171.177 201.177 171.116 165.705 171.001C136.645 170.907 127.695 171.013 127.252 171.457ZM127.252 184.892C126.483 185.66 126.518 186.951 127.326 187.622C127.801 188.016 138.251 188.13 165.779 188.04C201.181 187.925 203.613 187.864 204.11 187.078C204.496 186.465 204.496 186.011 204.11 185.398C203.613 184.612 201.177 184.551 165.705 184.436C136.645 184.342 127.695 184.448 127.252 184.892Z" fill="#3A2C60"/>
<rect x="125.473" y="105.642" width="80.6101" height="55.1795" rx="4.3184" fill="#0089EF" stroke="#3A2C60" stroke-width="3.83858"/>
<path d="M126.193 142.588L152.823 121.956L181.133 142.588L192.889 132.991L205.604 142.588" stroke="#3A2C60" stroke-width="3.83858"/>
<circle cx="179.693" cy="120.036" r="7.19733" stroke="#3A2C60" stroke-width="3.83858"/>
<path d="M31.1885 119.077L79.6505 119.079" stroke="#3A2C60" stroke-width="3.83858" stroke-linecap="round"/>
<path d="M71.9736 159.382L111.799 159.384" stroke="#3A2C60" stroke-width="3.83858" stroke-linecap="round"/>
<path d="M30.709 172.817H75.3324" stroke="#3A2C60" stroke-width="3.83858" stroke-linecap="round"/>
<path d="M127.152 172.817H203.924" stroke="#3A2C60" stroke-width="3.83858" stroke-linecap="round"/>
<path d="M127.152 186.252H203.924" stroke="#3A2C60" stroke-width="3.83858" stroke-linecap="round"/>
<path d="M83.9688 172.817H111.798" stroke="#3A2C60" stroke-width="3.83858" stroke-linecap="round"/>
<path d="M30.709 159.382L61.4176 159.384" stroke="#3A2C60" stroke-width="3.83858" stroke-linecap="round"/>
<path d="M57.5791 146.427L80.1307 146.428" stroke="#FA759E" stroke-width="3.83858" stroke-linecap="round"/>
<path d="M59.498 185.772L82.0497 185.773" stroke="#FA759E" stroke-width="3.83858" stroke-linecap="round"/>
<path d="M20.1523 107.561L50.8609 107.563" stroke="#FA759E" stroke-width="3.83858" stroke-linecap="round"/>
<path d="M61.8975 107.561L70.5343 107.561" stroke="#FA759E" stroke-width="3.83858" stroke-linecap="round"/>
<path d="M15.3545 146.427L50.3815 146.427" stroke="#FA759E" stroke-width="3.83858" stroke-linecap="round"/>
<path d="M20.1523 185.772L50.3811 185.772" stroke="#FA759E" stroke-width="3.83858" stroke-linecap="round"/>
<path d="M30.709 132.032H111.799" stroke="#3A2C60" stroke-width="3.83858" stroke-linecap="round"/>
<path d="M90.2061 119.077H111.798" stroke="#3A2C60" stroke-width="3.83858" stroke-linecap="round"/>
<path d="M221.646 47.8215L1.93325 48.0629V10.6858C1.93325 10.6858 1.60567 6.4656 4.08608 4.17476C6.35979 2.07483 9.83145 2.00472 9.83145 2.00472H71.8192C71.8192 2.00472 79.7998 1.80934 83.5468 3.93362C85.7939 5.20752 87.3763 6.82733 87.3763 6.82733L94.7958 15.5744C94.7958 15.5744 97.4763 18.1882 99.5826 19.1256C101.549 20.0006 107.481 20.0904 107.481 20.0904L210.157 19.6079C210.157 19.6079 215.504 19.5044 218.534 22.0193C222.214 25.0726 221.646 32.3884 221.646 32.3884V47.8215Z" fill="#0089EF" stroke="#3A2C60" stroke-width="3.83858" stroke-linecap="round"/>
<path d="M28.3096 35.5876H208.243" stroke="#6DC9F7" stroke-width="5.75786" stroke-linecap="round"/>
<rect x="125.233" y="59.0988" width="80.6101" height="34.5472" rx="4.3184" fill="#FA759E" stroke="#3A2C60" stroke-width="3.83858"/>
<circle cx="28.3093" cy="17.3542" r="5.27804" fill="#FA759E"/>
<circle cx="47.5027" cy="17.3542" r="5.27804" fill="#D4FBFF"/>
<circle cx="66.695" cy="17.3542" r="5.27804" fill="white"/>
</svg>
