<svg width="220" height="165" viewBox="0 0 220 165" fill="none" xmlns="http://www.w3.org/2000/svg">
<path d="M17.5 165H202.5C212.165 165 220 157.165 220 147.5V17.5C220 7.835 212.165 0 202.5 0H17.5C7.835 0 0 7.835 0 17.5V147.5C0 157.165 7.835 165 17.5 165Z" fill="#E0E0E0"/>
<path d="M120 165H202.5C212.165 165 220 157.165 220 147.5V17.5C220 7.835 212.165 0 202.5 0H17.5C7.835 0 0 7.835 0 17.5L120 165Z" fill="#D9D9D9"/>
<path d="M23.725 165H202.5C212.165 165 220 157.165 220 147.5L220 20L23.725 165Z" fill="#EEEEEE"/>
<path d="M118.725 165H202.5C212.165 165 220 157.165 220 147.5L220 20L83.855 120.58L118.725 165Z" fill="#E0E0E0"/>
<path d="M202.5 10H17.5C7.835 10 0 7.835 0 17.5V147.5C0 157.165 7.835 165 17.5 165L25 165V22.5H195V165L202.5 165C212.165 165 220 157.165 220 147.5V17.5C220 7.835 212.165 10 202.5 10Z" fill="#CA3737"/>
<path d="M202.5 0H17.5C7.835 0 0 7.68 0 17.5C0 23.53 7.59 28.79 7.59 28.79L110 101.28L212.41 28.795C212.41 28.795 220 23.53 220 17.505C220 7.68 212.165 0 202.5 0Z" fill="#F5F5F5"/>
<path d="M206.23 0.409851L110 67.4999L13.77 0.409851C5.9 2.09485 0 8.985 0 17.5C0 23.53 7.59 28.79 7.59 28.79L110 101.28L212.41 28.795C212.41 28.795 220 23.53 220 17.505C220 8.985 214.1 2.09485 206.23 0.409851Z" fill="#E84F4B"/>
</svg>
