<svg width="182" height="182" viewBox="0 0 182 182" fill="none" xmlns="http://www.w3.org/2000/svg">
<path d="M141.085 180.95L41.085 181.045C19.085 181.065 1.06997 163.085 1.04497 141.085L0.949968 41.085C0.929968 19.085 18.91 1.06997 40.91 1.04497L140.91 0.949968C162.91 0.929968 180.925 18.91 180.95 40.91L181.045 140.91C181.07 162.915 163.085 180.93 141.085 180.95Z" fill="url(#paint0_radial_141_37)"/>
<path d="M141.085 180.95L41.085 181.045C19.085 181.065 1.06997 163.085 1.04497 141.085L0.949968 41.085C0.929968 19.085 18.91 1.06997 40.91 1.04497L140.91 0.949968C162.91 0.929968 180.925 18.91 180.95 40.91L181.045 140.91C181.07 162.915 163.085 180.93 141.085 180.95Z" fill="url(#paint1_radial_141_37)"/>
<path d="M91.0001 126C71.7051 126 56.0001 110.3 56.0001 91C56.0001 71.7 71.7051 56 91.0001 56C110.295 56 126 71.7 126 91C126 110.3 110.295 126 91.0001 126ZM91.0001 66C77.2151 66 66.0001 77.215 66.0001 91C66.0001 104.785 77.2151 116 91.0001 116C104.785 116 116 104.785 116 91C116 77.215 104.785 66 91.0001 66Z" fill="white"/>
<path d="M128.5 61C132.642 61 136 57.6421 136 53.5C136 49.3579 132.642 46 128.5 46C124.358 46 121 49.3579 121 53.5C121 57.6421 124.358 61 128.5 61Z" fill="white"/>
<path d="M121 156H61.0001C41.7051 156 26.0001 140.3 26.0001 121V61C26.0001 41.7 41.7051 26 61.0001 26H121C140.295 26 156 41.7 156 61V121C156 140.3 140.295 156 121 156ZM61.0001 36C47.2151 36 36.0001 47.215 36.0001 61V121C36.0001 134.785 47.2151 146 61.0001 146H121C134.785 146 146 134.785 146 121V61C146 47.215 134.785 36 121 36H61.0001Z" fill="white"/>
<defs>
<radialGradient id="paint0_radial_141_37" cx="0" cy="0" r="1" gradientUnits="userSpaceOnUse" gradientTransform="translate(67.9 181.175) scale(224.495)">
<stop stop-color="#FFDD55"/>
<stop offset="0.328" stop-color="#FF543F"/>
<stop offset="0.348" stop-color="#FC5245"/>
<stop offset="0.504" stop-color="#E64771"/>
<stop offset="0.643" stop-color="#D53E91"/>
<stop offset="0.761" stop-color="#CC39A4"/>
<stop offset="0.841" stop-color="#C837AB"/>
</radialGradient>
<radialGradient id="paint1_radial_141_37" cx="0" cy="0" r="1" gradientUnits="userSpaceOnUse" gradientTransform="translate(29.93 -1.29852) scale(149.065 99.322)">
<stop stop-color="#4168C9"/>
<stop offset="0.999" stop-color="#4168C9" stop-opacity="0"/>
</radialGradient>
</defs>
</svg>
