<svg width="187" height="187" viewBox="0 0 187 187" fill="none" xmlns="http://www.w3.org/2000/svg">
<path d="M180.017 0.0490417L6.04902 0.0490417C2.73531 0.0490417 0.0490203 2.73533 0.0490203 6.04904L0.0490203 180.017C0.0490203 183.331 2.73531 186.017 6.04902 186.017H180.017C183.331 186.017 186.017 183.331 186.017 180.017V6.04904C186.017 2.73533 183.331 0.0490417 180.017 0.0490417Z" fill="#F5DE19"/>
<path d="M124.973 145.337C126.558 148.555 129.019 151.26 132.075 153.141C135.13 155.021 138.654 155.999 142.242 155.963C149.481 155.963 154.11 152.344 154.11 147.329C154.11 141.352 149.355 139.213 141.385 135.726L137.015 133.853C124.395 128.48 116.027 121.752 116.027 107.525C116.027 94.4211 125.989 84.4386 141.617 84.4386C146.676 84.0733 151.731 85.2055 156.151 87.6942C160.57 90.1828 164.16 93.9176 166.471 98.4327L152.809 107.167C151.919 104.928 150.369 103.012 148.366 101.674C146.362 100.336 144 99.639 141.591 99.6747C140.54 99.5695 139.478 99.6844 138.474 100.012C137.47 100.34 136.545 100.873 135.759 101.578C134.972 102.283 134.341 103.143 133.905 104.106C133.47 105.068 133.239 106.11 133.229 107.167C133.229 112.407 136.477 114.532 143.975 117.793L148.345 119.666C163.196 126.036 171.591 132.525 171.591 147.117C171.591 162.851 159.231 171.472 142.633 171.472C136.166 171.884 129.718 170.416 124.067 167.244C118.416 164.073 113.804 159.334 110.786 153.599L124.973 145.337ZM63.2383 146.851C65.9814 151.719 68.4787 155.837 74.4828 155.837C80.2212 155.837 83.8476 153.592 83.8476 144.858V85.4349H101.322V145.091C101.322 163.183 90.6952 171.419 75.2267 171.419C69.7589 171.717 64.3286 170.355 59.6497 167.51C54.9709 164.665 51.2624 160.471 49.0118 155.478L63.2383 146.851Z" fill="black"/>
</svg>
