<svg width="176" height="176" viewBox="0 0 176 176" fill="none" xmlns="http://www.w3.org/2000/svg">
<path d="M176 12.9412V163.059C176 166.491 174.637 169.783 172.21 172.21C169.783 174.637 166.491 176 163.059 176H12.9412C9.50896 176 6.21732 174.637 3.79038 172.21C1.36344 169.783 0 166.491 0 163.059L0 12.9412C0 9.50896 1.36344 6.21732 3.79038 3.79038C6.21732 1.36344 9.50896 0 12.9412 0L163.059 0C166.491 0 169.783 1.36344 172.21 3.79038C174.637 6.21732 176 9.50896 176 12.9412V12.9412ZM51.7647 67.2941H25.8824V150.118H51.7647V67.2941ZM54.0941 38.8235C54.1078 36.8657 53.7356 34.9244 52.999 33.1105C52.2624 31.2965 51.1757 29.6454 49.8009 28.2514C48.4262 26.8574 46.7903 25.7479 44.9867 24.9861C43.1832 24.2244 41.2472 23.8253 39.2894 23.8118H38.8235C34.8422 23.8118 31.0239 25.3934 28.2086 28.2086C25.3934 31.0239 23.8118 34.8422 23.8118 38.8235C23.8118 42.8049 25.3934 46.6232 28.2086 49.4385C31.0239 52.2537 34.8422 53.8353 38.8235 53.8353V53.8353C40.7815 53.8835 42.7297 53.5454 44.5569 52.8403C46.3841 52.1353 48.0545 51.0771 49.4726 49.7263C50.8908 48.3755 52.0288 46.7585 52.8218 44.9677C53.6148 43.1769 54.0471 41.2474 54.0941 39.2894V38.8235ZM150.118 99.8024C150.118 74.9035 134.278 65.2235 118.541 65.2235C113.389 64.9655 108.259 66.063 103.663 68.4063C99.0668 70.7497 95.1656 74.2572 92.3482 78.5788H91.6235V67.2941H67.2941V150.118H93.1765V106.066C92.8023 101.554 94.2235 97.0772 97.1312 93.6073C100.039 90.1374 104.198 87.955 108.706 87.5341H109.689C117.92 87.5341 124.028 92.7106 124.028 105.755V150.118H149.911L150.118 99.8024Z" fill="#007BB6"/>
</svg>
