<svg width="131" height="293" viewBox="0 0 131 293" fill="none" xmlns="http://www.w3.org/2000/svg">
<path d="M64.5141 0.838379L72.1923 15.4807C73.9186 18.1828 75.7887 20.5745 77.9915 22.8019C84.42 29.3289 90.5249 36.1662 96.0093 43.4874C109.019 60.8318 117.794 80.0932 124.061 100.925C127.819 113.65 129.86 126.704 130.013 139.904C130.642 179.367 117.318 213.253 90.4529 241.414C86.0653 245.869 81.3721 249.995 76.3372 253.665C73.6758 253.665 72.4171 251.593 71.3202 249.685C69.2793 246.189 68.0295 242.2 67.4002 238.229C66.4561 233.454 65.8357 228.68 66.1414 223.751V221.523C65.9256 221.048 63.579 1.9612 64.5141 0.838379Z" fill="#599636"/>
<path d="M64.5141 0.35458C64.1994 -0.284425 63.8847 0.199393 63.57 0.509767C63.7229 3.70479 62.626 6.55293 60.9087 9.27326C59.0206 11.9753 56.5211 14.0475 54.0126 16.2749C40.0767 28.5256 29.1077 43.3231 20.3236 59.8733C8.63535 82.1472 2.61142 106.019 0.903137 131.15C0.120925 140.214 3.72629 172.201 6.54046 181.43C14.2187 205.932 28.0108 226.462 45.8758 244.281C50.2634 248.571 54.9567 252.551 59.8118 256.376C61.2234 256.376 61.3762 255.098 61.6999 254.149C62.3188 252.117 62.7905 250.043 63.1115 247.941L66.2583 224.079L64.5141 0.35458Z" fill="#6CAC48"/>
<path d="M72.1924 263.36C72.5071 259.708 74.2333 256.678 76.1124 253.656C74.2243 252.862 72.8218 251.282 71.7249 249.521C70.7808 247.932 69.9986 246.024 69.3872 244.272C67.1934 237.59 66.7259 230.579 66.0965 223.751V219.615C65.3143 220.254 65.1525 225.658 65.1525 226.462C64.695 233.679 63.7517 240.855 62.3293 247.941C61.8618 250.808 61.5471 253.665 59.8119 256.212C59.8119 256.531 59.8119 256.851 59.9647 257.326C62.7879 265.761 63.5611 274.351 64.0376 283.105V286.3C64.0376 290.116 63.8848 289.312 67.0046 290.59C68.2634 291.065 69.666 291.229 70.9247 292.179C71.8687 292.179 72.0216 291.385 72.0216 290.746L71.554 285.497V270.854C71.4012 268.298 71.8687 265.761 72.1834 263.369L72.1924 263.36Z" fill="#C2BFBF"/>
</svg>
