<svg width="85" height="96" viewBox="0 0 85 96" fill="none" xmlns="http://www.w3.org/2000/svg">
<path d="M42.433 95.6443C41.1505 95.6443 39.877 95.309 38.7555 94.6606L27.043 87.7362C25.2952 86.7584 26.1482 86.4126 26.7239 86.2112C29.0592 85.4022 29.5305 85.2159 32.0209 83.8049C32.2804 83.6594 32.6234 83.7141 32.8918 83.8713L41.8872 89.2089C42.2153 89.3893 42.6746 89.3893 42.9759 89.2089L78.0509 68.9796C78.379 68.7933 78.5878 68.4173 78.5878 68.0308V27.5825C78.5878 27.1867 78.379 26.8166 78.0449 26.6163L42.9818 6.40334C42.6567 6.2147 42.2273 6.2147 41.8992 6.40334L6.84502 26.6223C6.50501 26.8166 6.29027 27.1983 6.29027 27.5825V68.0308C6.29027 68.4173 6.505 68.784 6.84203 68.9679L16.4519 74.5151C21.6654 77.1193 24.8597 74.0518 24.8597 70.9703V31.0342C24.8597 30.4697 25.3131 30.0239 25.8768 30.0239H30.3268C30.8815 30.0239 31.3409 30.4697 31.3409 31.0342V70.9703C31.3409 77.9225 27.553 81.9097 20.9555 81.9097C18.9274 81.9097 17.3317 81.9097 12.8758 79.7153L3.67753 74.4243C1.40481 73.1123 0 70.6583 0 68.0308V27.5825C0 24.9539 1.40481 22.5012 3.67753 21.1938L38.7555 0.941216C40.9746 -0.313749 43.9243 -0.313749 46.1255 0.941216L81.2005 21.1938C83.4732 22.5069 84.884 24.9539 84.884 27.5825V68.0308C84.884 70.6583 83.4732 73.103 81.2005 74.4243L46.1255 94.6606C45.004 95.309 43.7334 95.6443 42.433 95.6443" fill="#72C42D"/>
<path d="M53.2686 67.7771C37.9174 67.7771 34.7021 60.7374 34.7021 54.8318C34.7021 54.2706 35.1555 53.8224 35.7162 53.8224H40.2527C40.7597 53.8224 41.1803 54.1857 41.2608 54.6804C41.9438 59.2941 43.9869 61.6222 53.2686 61.6222C60.6565 61.6222 63.8031 59.9518 63.8031 56.0343C63.8031 53.7759 62.9113 52.0996 51.4284 50.976C41.8305 50.0274 35.8952 47.9085 35.8952 40.2368C35.8952 33.1648 41.8603 28.9469 51.8608 28.9469C63.0992 28.9469 68.6587 32.8447 69.3626 41.2054C69.3894 41.4942 69.288 41.7701 69.0971 41.9853C68.9033 42.1868 68.6348 42.309 68.3545 42.309H63.8001C63.3288 42.309 62.9113 41.9737 62.8159 41.5174C61.7242 36.663 59.0667 35.1112 51.8608 35.1112C43.793 35.1112 42.8565 37.9203 42.8565 40.0237C42.8565 42.5733 43.963 43.316 54.8554 44.756C65.6344 46.18 70.7555 48.1961 70.7555 55.7667C70.7555 63.4035 64.3817 67.7771 53.2686 67.7771Z" fill="#72C42D"/>
</svg>
