<svg width="438" height="134" viewBox="0 0 438 134" fill="none" xmlns="http://www.w3.org/2000/svg">
<rect width="438" height="134" rx="5" fill="url(#paint0_linear_8_130)"/>
<path fill-rule="evenodd" clip-rule="evenodd" d="M18 22.5C18 21.837 18.2634 21.2011 18.7322 20.7322C19.2011 20.2634 19.837 20 20.5 20H29.25C29.4489 20 29.6397 20.079 29.7803 20.2197C29.921 20.3603 30 20.5511 30 20.75V33.25C30 33.4489 29.921 33.6397 29.7803 33.7803C29.6397 33.921 29.4489 34 29.25 34H26.75C26.5511 34 26.3603 33.921 26.2197 33.7803C26.079 33.6397 26 33.4489 26 33.25C26 33.0511 26.079 32.8603 26.2197 32.7197C26.3603 32.579 26.5511 32.5 26.75 32.5H28.5V30.5H20.5C20.3031 30.5 20.1106 30.5582 19.9466 30.6672C19.7826 30.7762 19.6544 30.9312 19.5782 31.1128C19.5019 31.2943 19.481 31.4943 19.5179 31.6878C19.5549 31.8812 19.6482 32.0594 19.786 32.2C19.9252 32.3422 20.0023 32.5338 20.0002 32.7328C19.9982 32.9318 19.9172 33.1218 19.775 33.261C19.6328 33.4002 19.4412 33.4773 19.2422 33.4752C19.0432 33.4732 18.8532 33.3922 18.714 33.25C18.2557 32.7829 17.9993 32.1544 18 31.5V22.5ZM28.5 21.5V29H20.5C20.144 29 19.806 29.074 19.5 29.208V22.5C19.5 22.2348 19.6054 21.9804 19.7929 21.7929C19.9804 21.6054 20.2348 21.5 20.5 21.5H28.5ZM21 32.25V35.5C21 35.5464 21.0129 35.5919 21.0373 35.6314C21.0617 35.6709 21.0967 35.7028 21.1382 35.7236C21.1797 35.7444 21.2262 35.7532 21.2725 35.749C21.3187 35.7448 21.3629 35.7279 21.4 35.7L22.85 34.613C22.8933 34.5805 22.9459 34.563 23 34.563C23.0541 34.563 23.1067 34.5805 23.15 34.613L24.6 35.7C24.6371 35.7279 24.6813 35.7448 24.7276 35.749C24.7738 35.7532 24.8203 35.7444 24.8618 35.7236C24.9033 35.7028 24.9383 35.6709 24.9627 35.6314C24.9871 35.5919 25 35.5464 25 35.5V32.25C25 32.1837 24.9737 32.1201 24.9268 32.0732C24.8799 32.0263 24.8163 32 24.75 32H21.25C21.1837 32 21.1201 32.0263 21.0732 32.0732C21.0263 32.1201 21 32.1837 21 32.25Z" fill="#3051FF"/>
<path d="M43.7236 31.9248C43.4137 32.0798 43.0059 32.1572 42.5 32.1572C41.1419 32.1572 40.4629 31.5055 40.4629 30.2021V26.2441H39.2939V25H40.4629V23.3799L42.0488 22.9287V25H43.7236V26.2441H42.0488V29.7441C42.0488 30.1589 42.124 30.4551 42.2744 30.6328C42.4248 30.8105 42.6755 30.8994 43.0264 30.8994C43.2952 30.8994 43.5277 30.8219 43.7236 30.667V31.9248ZM50.9355 28.9307H46.1641C46.1823 29.5778 46.3805 30.0768 46.7588 30.4277C47.1416 30.7786 47.6657 30.9541 48.3311 30.9541C49.0785 30.9541 49.7643 30.7308 50.3887 30.2842V31.5625C49.7507 31.9635 48.9076 32.1641 47.8594 32.1641C46.8294 32.1641 46.0205 31.8473 45.4326 31.2139C44.8493 30.5758 44.5576 29.6803 44.5576 28.5273C44.5576 27.4382 44.8789 26.5518 45.5215 25.8682C46.1686 25.18 46.9707 24.8359 47.9277 24.8359C48.8848 24.8359 49.6253 25.1436 50.1494 25.7588C50.6735 26.374 50.9355 27.2285 50.9355 28.3223V28.9307ZM49.4043 27.8096C49.3997 27.2399 49.2653 26.7979 49.001 26.4834C48.7367 26.1644 48.3721 26.0049 47.9072 26.0049C47.4515 26.0049 47.0641 26.1712 46.7451 26.5039C46.4307 26.8366 46.237 27.2718 46.1641 27.8096H49.4043ZM52.0088 31.7812V30.3115C52.6012 30.7627 53.2552 30.9883 53.9707 30.9883C54.9277 30.9883 55.4062 30.7057 55.4062 30.1406C55.4062 29.9811 55.3652 29.8467 55.2832 29.7373C55.2012 29.6234 55.0895 29.5231 54.9482 29.4365C54.8115 29.3499 54.6475 29.2725 54.4561 29.2041C54.2692 29.1357 54.0596 29.0583 53.8271 28.9717C53.54 28.8577 53.2803 28.737 53.0479 28.6094C52.82 28.4818 52.6286 28.3382 52.4736 28.1787C52.3232 28.0146 52.2093 27.8301 52.1318 27.625C52.0544 27.4199 52.0156 27.1807 52.0156 26.9072C52.0156 26.57 52.0954 26.2738 52.2549 26.0186C52.4144 25.7588 52.6286 25.5423 52.8975 25.3691C53.1663 25.1914 53.4717 25.0592 53.8135 24.9727C54.1553 24.8815 54.5085 24.8359 54.873 24.8359C55.5202 24.8359 56.099 24.9339 56.6094 25.1299V26.5176C56.1172 26.1803 55.5521 26.0117 54.9141 26.0117C54.7135 26.0117 54.5312 26.0322 54.3672 26.0732C54.2077 26.1143 54.071 26.1712 53.957 26.2441C53.8431 26.3171 53.7542 26.4059 53.6904 26.5107C53.6266 26.611 53.5947 26.7227 53.5947 26.8457C53.5947 26.9961 53.6266 27.1237 53.6904 27.2285C53.7542 27.3333 53.8477 27.4268 53.9707 27.5088C54.0983 27.5863 54.2487 27.6592 54.4219 27.7275C54.5996 27.7913 54.8024 27.862 55.0303 27.9395C55.3311 28.0625 55.5999 28.1878 55.8369 28.3154C56.0785 28.443 56.2835 28.5889 56.4521 28.7529C56.6208 28.9124 56.7507 29.0993 56.8418 29.3135C56.9329 29.5231 56.9785 29.7738 56.9785 30.0654C56.9785 30.4209 56.8965 30.7308 56.7324 30.9951C56.5684 31.2594 56.3496 31.4782 56.0762 31.6514C55.8027 31.8245 55.486 31.9521 55.126 32.0342C54.7705 32.1208 54.3945 32.1641 53.998 32.1641C53.2324 32.1641 52.5693 32.0365 52.0088 31.7812ZM64.8398 32H62.8301L60.1094 28.6367H60.082V32H58.4893V21.6367H60.082V28.2061H60.1094L62.6797 25H64.5869L61.6953 28.377L64.8398 32ZM66.6445 23.5303C66.3848 23.5303 66.1615 23.446 65.9746 23.2773C65.7923 23.1087 65.7012 22.8945 65.7012 22.6348C65.7012 22.375 65.7923 22.1585 65.9746 21.9854C66.1615 21.8122 66.3848 21.7256 66.6445 21.7256C66.9134 21.7256 67.1413 21.8122 67.3281 21.9854C67.515 22.1585 67.6084 22.375 67.6084 22.6348C67.6084 22.8809 67.515 23.0928 67.3281 23.2705C67.1413 23.4437 66.9134 23.5303 66.6445 23.5303ZM67.4307 32H65.8447V25H67.4307V32ZM74.8818 32H73.3438V30.9062H73.3164C72.8333 31.7448 72.1247 32.1641 71.1904 32.1641C70.5023 32.1641 69.9622 31.9772 69.5703 31.6035C69.1829 31.2298 68.9893 30.7354 68.9893 30.1201C68.9893 28.7985 69.7503 28.0283 71.2725 27.8096L73.3506 27.5156C73.3506 26.5176 72.8766 26.0186 71.9287 26.0186C71.0947 26.0186 70.3428 26.3057 69.6729 26.8799V25.4922C70.4111 25.0547 71.2633 24.8359 72.2295 24.8359C73.9977 24.8359 74.8818 25.7064 74.8818 27.4473V32ZM73.3506 28.5615L71.8809 28.7666C71.4251 28.8258 71.0811 28.9375 70.8486 29.1016C70.6208 29.2611 70.5068 29.5436 70.5068 29.9492C70.5068 30.2454 70.6117 30.4893 70.8213 30.6807C71.0355 30.8675 71.3203 30.9609 71.6758 30.9609C72.1589 30.9609 72.5576 30.7923 72.8721 30.4551C73.1911 30.1133 73.3506 29.6849 73.3506 29.1699V28.5615ZM83.0576 32H81.4717V28.0557C81.4717 26.7477 81.0091 26.0938 80.084 26.0938C79.6009 26.0938 79.2021 26.276 78.8877 26.6406C78.5732 27.0007 78.416 27.4564 78.416 28.0078V32H76.8232V25H78.416V26.1621H78.4434C78.9674 25.278 79.724 24.8359 80.7129 24.8359C81.474 24.8359 82.055 25.0843 82.4561 25.5811C82.8571 26.0732 83.0576 26.7865 83.0576 27.7207V32ZM91.3633 32H89.7773V30.8105H89.75C89.2396 31.7129 88.4535 32.1641 87.3916 32.1641C86.5303 32.1641 85.8398 31.8519 85.3203 31.2275C84.8053 30.5986 84.5479 29.7441 84.5479 28.6641C84.5479 27.5065 84.8327 26.5791 85.4023 25.8818C85.9766 25.1846 86.7399 24.8359 87.6924 24.8359C88.6357 24.8359 89.3216 25.2142 89.75 25.9707H89.7773V21.6367H91.3633V32ZM89.7979 28.8008V27.8848C89.7979 27.388 89.6361 26.9665 89.3125 26.6201C88.9889 26.2738 88.5765 26.1006 88.0752 26.1006C87.4827 26.1006 87.0156 26.3216 86.6738 26.7637C86.3366 27.2057 86.168 27.8187 86.168 28.6025C86.168 29.3135 86.3298 29.8763 86.6533 30.291C86.9814 30.7012 87.4212 30.9062 87.9727 30.9062C88.515 30.9062 88.9548 30.708 89.292 30.3115C89.6292 29.9105 89.7979 29.4069 89.7979 28.8008ZM96.5381 32.1641C95.458 32.1641 94.5944 31.8382 93.9473 31.1865C93.3047 30.5303 92.9834 29.6621 92.9834 28.582C92.9834 27.4062 93.3184 26.488 93.9883 25.8271C94.6628 25.1663 95.5697 24.8359 96.709 24.8359C97.8027 24.8359 98.6549 25.1572 99.2656 25.7998C99.8763 26.4424 100.182 27.3333 100.182 28.4727C100.182 29.5892 99.8512 30.4847 99.1904 31.1592C98.5342 31.8291 97.6501 32.1641 96.5381 32.1641ZM96.6133 26.1006C95.9935 26.1006 95.5036 26.3171 95.1436 26.75C94.7835 27.1829 94.6035 27.7799 94.6035 28.541C94.6035 29.2747 94.7858 29.8535 95.1504 30.2773C95.515 30.6966 96.0026 30.9062 96.6133 30.9062C97.2376 30.9062 97.7161 30.6989 98.0488 30.2842C98.3861 29.8695 98.5547 29.2793 98.5547 28.5137C98.5547 27.7435 98.3861 27.1488 98.0488 26.7295C97.7161 26.3102 97.2376 26.1006 96.6133 26.1006ZM105.486 28.7598H101.754V27.5908H105.486V28.7598ZM111.393 22.9287C111.178 22.8057 110.935 22.7441 110.661 22.7441C109.891 22.7441 109.506 23.1794 109.506 24.0498V25H111.133V26.2441H109.513V32H107.927V26.2441H106.73V25H107.927V23.8652C107.927 23.127 108.168 22.5459 108.651 22.1221C109.134 21.6937 109.738 21.4795 110.463 21.4795C110.855 21.4795 111.165 21.5228 111.393 21.6094V22.9287ZM116.321 26.5107C116.13 26.3604 115.854 26.2852 115.494 26.2852C115.025 26.2852 114.633 26.4971 114.318 26.9209C114.004 27.3447 113.847 27.9212 113.847 28.6504V32H112.261V25H113.847V26.4424H113.874C114.029 25.9502 114.266 25.5674 114.585 25.2939C114.909 25.016 115.269 24.877 115.665 24.877C115.952 24.877 116.171 24.9202 116.321 25.0068V26.5107ZM120.423 32.1641C119.343 32.1641 118.479 31.8382 117.832 31.1865C117.189 30.5303 116.868 29.6621 116.868 28.582C116.868 27.4062 117.203 26.488 117.873 25.8271C118.548 25.1663 119.454 24.8359 120.594 24.8359C121.688 24.8359 122.54 25.1572 123.15 25.7998C123.761 26.4424 124.066 27.3333 124.066 28.4727C124.066 29.5892 123.736 30.4847 123.075 31.1592C122.419 31.8291 121.535 32.1641 120.423 32.1641ZM120.498 26.1006C119.878 26.1006 119.388 26.3171 119.028 26.75C118.668 27.1829 118.488 27.7799 118.488 28.541C118.488 29.2747 118.671 29.8535 119.035 30.2773C119.4 30.6966 119.887 30.9062 120.498 30.9062C121.122 30.9062 121.601 30.6989 121.934 30.2842C122.271 29.8695 122.439 29.2793 122.439 28.5137C122.439 27.7435 122.271 27.1488 121.934 26.7295C121.601 26.3102 121.122 26.1006 120.498 26.1006ZM131.921 32H130.335V28.0557C130.335 26.7477 129.872 26.0938 128.947 26.0938C128.464 26.0938 128.065 26.276 127.751 26.6406C127.437 27.0007 127.279 27.4564 127.279 28.0078V32H125.687V25H127.279V26.1621H127.307C127.831 25.278 128.587 24.8359 129.576 24.8359C130.337 24.8359 130.918 25.0843 131.319 25.5811C131.72 26.0732 131.921 26.7865 131.921 27.7207V32ZM137.554 31.9248C137.244 32.0798 136.836 32.1572 136.33 32.1572C134.972 32.1572 134.293 31.5055 134.293 30.2021V26.2441H133.124V25H134.293V23.3799L135.879 22.9287V25H137.554V26.2441H135.879V29.7441C135.879 30.1589 135.954 30.4551 136.104 30.6328C136.255 30.8105 136.506 30.8994 136.856 30.8994C137.125 30.8994 137.358 30.8219 137.554 30.667V31.9248ZM141.895 28.7598H138.162V27.5908H141.895V28.7598ZM149.77 28.9307H144.998C145.016 29.5778 145.215 30.0768 145.593 30.4277C145.976 30.7786 146.5 30.9541 147.165 30.9541C147.912 30.9541 148.598 30.7308 149.223 30.2842V31.5625C148.585 31.9635 147.742 32.1641 146.693 32.1641C145.663 32.1641 144.854 31.8473 144.267 31.2139C143.683 30.5758 143.392 29.6803 143.392 28.5273C143.392 27.4382 143.713 26.5518 144.355 25.8682C145.003 25.18 145.805 24.8359 146.762 24.8359C147.719 24.8359 148.459 25.1436 148.983 25.7588C149.507 26.374 149.77 27.2285 149.77 28.3223V28.9307ZM148.238 27.8096C148.234 27.2399 148.099 26.7979 147.835 26.4834C147.571 26.1644 147.206 26.0049 146.741 26.0049C146.285 26.0049 145.898 26.1712 145.579 26.5039C145.265 26.8366 145.071 27.2718 144.998 27.8096H148.238ZM157.515 32H155.929V28.0557C155.929 26.7477 155.466 26.0938 154.541 26.0938C154.058 26.0938 153.659 26.276 153.345 26.6406C153.03 27.0007 152.873 27.4564 152.873 28.0078V32H151.28V25H152.873V26.1621H152.9C153.424 25.278 154.181 24.8359 155.17 24.8359C155.931 24.8359 156.512 25.0843 156.913 25.5811C157.314 26.0732 157.515 26.7865 157.515 27.7207V32ZM165.82 32H164.234V30.8105H164.207C163.697 31.7129 162.91 32.1641 161.849 32.1641C160.987 32.1641 160.297 31.8519 159.777 31.2275C159.262 30.5986 159.005 29.7441 159.005 28.6641C159.005 27.5065 159.29 26.5791 159.859 25.8818C160.434 25.1846 161.197 24.8359 162.149 24.8359C163.093 24.8359 163.779 25.2142 164.207 25.9707H164.234V21.6367H165.82V32ZM164.255 28.8008V27.8848C164.255 27.388 164.093 26.9665 163.77 26.6201C163.446 26.2738 163.034 26.1006 162.532 26.1006C161.94 26.1006 161.473 26.3216 161.131 26.7637C160.794 27.2057 160.625 27.8187 160.625 28.6025C160.625 29.3135 160.787 29.8763 161.11 30.291C161.438 30.7012 161.878 30.9062 162.43 30.9062C162.972 30.9062 163.412 30.708 163.749 30.3115C164.086 29.9105 164.255 29.4069 164.255 28.8008Z" fill="#3051FF"/>
<g clip-path="url(#clip0_8_130)">
<path fill-rule="evenodd" clip-rule="evenodd" d="M342.717 16.4741L413.867 -0.381481C426.965 -3.48451 440.104 4.63837 443.212 17.7615L460.1 89.046C463.209 102.169 455.111 115.323 442.012 118.426L370.862 135.282C357.764 138.385 344.626 130.262 341.517 117.139L324.629 45.8542C321.52 32.731 329.618 19.5771 342.717 16.4741ZM420.966 17.4352L443.352 34.1369L382.646 115.822L360.26 99.1201L360.341 99.0105L335.301 80.329L350.421 59.984L375.461 78.6655L420.966 17.4352Z" fill="#AEBBFF"/>
</g>
<path d="M23.9395 59H22.4102L21.6543 56.8613H18.3496L17.623 59H16.0996L19.2461 50.5977H20.8164L23.9395 59ZM21.2852 55.7246L20.1191 52.373C20.084 52.2637 20.0469 52.0879 20.0078 51.8457H19.9844C19.9492 52.0684 19.9102 52.2441 19.8672 52.373L18.7129 55.7246H21.2852ZM26.3301 58.1152H26.3066V61.7598H24.9473V53H26.3066V54.0547H26.3301C26.7949 53.2578 27.4746 52.8594 28.3691 52.8594C29.1309 52.8594 29.7246 53.127 30.1504 53.6621C30.5762 54.1973 30.7891 54.916 30.7891 55.8184C30.7891 56.8184 30.5488 57.6191 30.0684 58.2207C29.5879 58.8223 28.9316 59.123 28.0996 59.123C27.334 59.123 26.7441 58.7871 26.3301 58.1152ZM26.2949 55.748V56.4922C26.2949 56.9297 26.4336 57.3008 26.7109 57.6055C26.9922 57.9102 27.3477 58.0625 27.7773 58.0625C28.2812 58.0625 28.6758 57.8672 28.9609 57.4766C29.25 57.082 29.3945 56.5332 29.3945 55.8301C29.3945 55.2402 29.2598 54.7793 28.9902 54.4473C28.7246 54.1113 28.3633 53.9434 27.9062 53.9434C27.4219 53.9434 27.0312 54.1152 26.7344 54.459C26.4414 54.8027 26.2949 55.2324 26.2949 55.748ZM33.543 59H32.1777V50.1172H33.543V59ZM36.0039 51.7402C35.7812 51.7402 35.5898 51.668 35.4297 51.5234C35.2734 51.3789 35.1953 51.1953 35.1953 50.9727C35.1953 50.75 35.2734 50.5645 35.4297 50.416C35.5898 50.2676 35.7812 50.1934 36.0039 50.1934C36.2344 50.1934 36.4297 50.2676 36.5898 50.416C36.75 50.5645 36.8301 50.75 36.8301 50.9727C36.8301 51.1836 36.75 51.3652 36.5898 51.5176C36.4297 51.666 36.2344 51.7402 36.0039 51.7402ZM36.6777 59H35.3184V53H36.6777V59ZM42.7539 58.7246C42.2734 59.002 41.7051 59.1406 41.0488 59.1406C40.1582 59.1406 39.4395 58.8633 38.8926 58.3086C38.3457 57.75 38.0723 57.0273 38.0723 56.1406C38.0723 55.1523 38.3652 54.3594 38.9512 53.7617C39.541 53.1602 40.3281 52.8594 41.3125 52.8594C41.8594 52.8594 42.3418 52.9551 42.7598 53.1465V54.4121C42.3418 54.0996 41.8965 53.9434 41.4238 53.9434C40.8496 53.9434 40.3789 54.1387 40.0117 54.5293C39.6445 54.916 39.4609 55.4238 39.4609 56.0527C39.4609 56.6738 39.6328 57.1641 39.9766 57.5234C40.3242 57.8828 40.7891 58.0625 41.3711 58.0625C41.8594 58.0625 42.3203 57.8887 42.7539 57.541V58.7246ZM48.7129 59H47.3945V58.0625H47.3711C46.957 58.7812 46.3496 59.1406 45.5488 59.1406C44.959 59.1406 44.4961 58.9805 44.1602 58.6602C43.8281 58.3398 43.6621 57.916 43.6621 57.3887C43.6621 56.2559 44.3145 55.5957 45.6191 55.4082L47.4004 55.1562C47.4004 54.3008 46.9941 53.873 46.1816 53.873C45.4668 53.873 44.8223 54.1191 44.248 54.6113V53.4219C44.8809 53.0469 45.6113 52.8594 46.4395 52.8594C47.9551 52.8594 48.7129 53.6055 48.7129 55.0977V59ZM47.4004 56.0527L46.1406 56.2285C45.75 56.2793 45.4551 56.375 45.2559 56.5156C45.0605 56.6523 44.9629 56.8945 44.9629 57.2422C44.9629 57.4961 45.0527 57.7051 45.2324 57.8691C45.416 58.0293 45.6602 58.1094 45.9648 58.1094C46.3789 58.1094 46.7207 57.9648 46.9902 57.6758C47.2637 57.3828 47.4004 57.0156 47.4004 56.5742V56.0527ZM54.6719 58.7246C54.1914 59.002 53.623 59.1406 52.9668 59.1406C52.0762 59.1406 51.3574 58.8633 50.8105 58.3086C50.2637 57.75 49.9902 57.0273 49.9902 56.1406C49.9902 55.1523 50.2832 54.3594 50.8691 53.7617C51.459 53.1602 52.2461 52.8594 53.2305 52.8594C53.7773 52.8594 54.2598 52.9551 54.6777 53.1465V54.4121C54.2598 54.0996 53.8145 53.9434 53.3418 53.9434C52.7676 53.9434 52.2969 54.1387 51.9297 54.5293C51.5625 54.916 51.3789 55.4238 51.3789 56.0527C51.3789 56.6738 51.5508 57.1641 51.8945 57.5234C52.2422 57.8828 52.707 58.0625 53.2891 58.0625C53.7773 58.0625 54.2383 57.8887 54.6719 57.541V58.7246ZM54.1855 60.4531C54.1855 61.2109 53.623 61.5898 52.498 61.5898C52.3145 61.5898 52.1562 61.584 52.0234 61.5723V60.9219C52.1953 60.9453 52.334 60.957 52.4395 60.957C52.959 60.957 53.2188 60.7969 53.2188 60.4766C53.2188 60.1875 52.9824 60.043 52.5098 60.043C52.4707 60.043 52.3945 60.0508 52.2812 60.0664V59H53.0781V59.5508C53.418 59.5508 53.6875 59.6289 53.8867 59.7852C54.0859 59.9453 54.1855 60.168 54.1855 60.4531ZM60.6309 59H59.3125V58.0625H59.2891C58.875 58.7812 58.2676 59.1406 57.4668 59.1406C56.877 59.1406 56.4141 58.9805 56.0781 58.6602C55.7461 58.3398 55.5801 57.916 55.5801 57.3887C55.5801 56.2559 56.2324 55.5957 57.5371 55.4082L59.3184 55.1562C59.3184 54.3008 58.9121 53.873 58.0996 53.873C57.3848 53.873 56.7402 54.1191 56.166 54.6113V53.4219C56.7988 53.0469 57.5293 52.8594 58.3574 52.8594C59.873 52.8594 60.6309 53.6055 60.6309 55.0977V59ZM59.3184 56.0527L58.0586 56.2285C57.668 56.2793 57.373 56.375 57.1738 56.5156C56.9785 56.6523 56.8809 56.8945 56.8809 57.2422C56.8809 57.4961 56.9707 57.7051 57.1504 57.8691C57.334 58.0293 57.5781 58.1094 57.8828 58.1094C58.2969 58.1094 58.6387 57.9648 58.9082 57.6758C59.1816 57.3828 59.3184 57.0156 59.3184 56.5742V56.0527ZM60.25 50.3574C60.25 50.8105 60.1484 51.1816 59.9453 51.4707C59.7461 51.7559 59.4746 51.8984 59.1309 51.8984C58.8496 51.8984 58.5273 51.8047 58.1641 51.6172C57.8594 51.4414 57.623 51.3535 57.4551 51.3535C57.127 51.3535 56.9629 51.5703 56.9629 52.0039H56.2891C56.2891 51.5391 56.3887 51.168 56.5879 50.8906C56.7871 50.6094 57.0664 50.4688 57.4258 50.4688C57.6914 50.4688 57.998 50.5684 58.3457 50.7676C58.627 50.9395 58.8711 51.0254 59.0781 51.0254C59.3945 51.0254 59.5527 50.8027 59.5527 50.3574H60.25ZM64.9551 59.1406C64.0293 59.1406 63.2891 58.8613 62.7344 58.3027C62.1836 57.7402 61.9082 56.9961 61.9082 56.0703C61.9082 55.0625 62.1953 54.2754 62.7695 53.709C63.3477 53.1426 64.125 52.8594 65.1016 52.8594C66.0391 52.8594 66.7695 53.1348 67.293 53.6855C67.8164 54.2363 68.0781 55 68.0781 55.9766C68.0781 56.9336 67.7949 57.7012 67.2285 58.2793C66.666 58.8535 65.9082 59.1406 64.9551 59.1406ZM65.0195 53.9434C64.4883 53.9434 64.0684 54.1289 63.7598 54.5C63.4512 54.8711 63.2969 55.3828 63.2969 56.0352C63.2969 56.6641 63.4531 57.1602 63.7656 57.5234C64.0781 57.8828 64.4961 58.0625 65.0195 58.0625C65.5547 58.0625 65.9648 57.8848 66.25 57.5293C66.5391 57.1738 66.6836 56.668 66.6836 56.0117C66.6836 55.3516 66.5391 54.8418 66.25 54.4824C65.9648 54.123 65.5547 53.9434 65.0195 53.9434ZM78.2266 59H76.8672V57.9805H76.8438C76.4062 58.7539 75.7324 59.1406 74.8223 59.1406C74.084 59.1406 73.4922 58.873 73.0469 58.3379C72.6055 57.7988 72.3848 57.0664 72.3848 56.1406C72.3848 55.1484 72.6289 54.3535 73.1172 53.7559C73.6094 53.1582 74.2637 52.8594 75.0801 52.8594C75.8887 52.8594 76.4766 53.1836 76.8438 53.832H76.8672V50.1172H78.2266V59ZM76.8848 56.2578V55.4727C76.8848 55.0469 76.7461 54.6855 76.4688 54.3887C76.1914 54.0918 75.8379 53.9434 75.4082 53.9434C74.9004 53.9434 74.5 54.1328 74.207 54.5117C73.918 54.8906 73.7734 55.416 73.7734 56.0879C73.7734 56.6973 73.9121 57.1797 74.1895 57.5352C74.4707 57.8867 74.8477 58.0625 75.3203 58.0625C75.7852 58.0625 76.1621 57.8926 76.4512 57.5527C76.7402 57.209 76.8848 56.7773 76.8848 56.2578ZM85.082 56.3691H80.9922C81.0078 56.9238 81.1777 57.3516 81.502 57.6523C81.8301 57.9531 82.2793 58.1035 82.8496 58.1035C83.4902 58.1035 84.0781 57.9121 84.6133 57.5293V58.625C84.0664 58.9688 83.3438 59.1406 82.4453 59.1406C81.5625 59.1406 80.8691 58.8691 80.3652 58.3262C79.8652 57.7793 79.6152 57.0117 79.6152 56.0234C79.6152 55.0898 79.8906 54.3301 80.4414 53.7441C80.9961 53.1543 81.6836 52.8594 82.5039 52.8594C83.3242 52.8594 83.959 53.123 84.4082 53.6504C84.8574 54.1777 85.082 54.9102 85.082 55.8477V56.3691ZM83.7695 55.4082C83.7656 54.9199 83.6504 54.541 83.4238 54.2715C83.1973 53.998 82.8848 53.8613 82.4863 53.8613C82.0957 53.8613 81.7637 54.0039 81.4902 54.2891C81.2207 54.5742 81.0547 54.9473 80.9922 55.4082H83.7695ZM86.002 58.8125V57.5527C86.5098 57.9395 87.0703 58.1328 87.6836 58.1328C88.5039 58.1328 88.9141 57.8906 88.9141 57.4062C88.9141 57.2695 88.8789 57.1543 88.8086 57.0605C88.7383 56.9629 88.6426 56.877 88.5215 56.8027C88.4043 56.7285 88.2637 56.6621 88.0996 56.6035C87.9395 56.5449 87.7598 56.4785 87.5605 56.4043C87.3145 56.3066 87.0918 56.2031 86.8926 56.0938C86.6973 55.9844 86.5332 55.8613 86.4004 55.7246C86.2715 55.584 86.1738 55.4258 86.1074 55.25C86.041 55.0742 86.0078 54.8691 86.0078 54.6348C86.0078 54.3457 86.0762 54.0918 86.2129 53.873C86.3496 53.6504 86.5332 53.4648 86.7637 53.3164C86.9941 53.1641 87.2559 53.0508 87.5488 52.9766C87.8418 52.8984 88.1445 52.8594 88.457 52.8594C89.0117 52.8594 89.5078 52.9434 89.9453 53.1113V54.3008C89.5234 54.0117 89.0391 53.8672 88.4922 53.8672C88.3203 53.8672 88.1641 53.8848 88.0234 53.9199C87.8867 53.9551 87.7695 54.0039 87.6719 54.0664C87.5742 54.1289 87.498 54.2051 87.4434 54.2949C87.3887 54.3809 87.3613 54.4766 87.3613 54.582C87.3613 54.7109 87.3887 54.8203 87.4434 54.9102C87.498 55 87.5781 55.0801 87.6836 55.1504C87.793 55.2168 87.9219 55.2793 88.0703 55.3379C88.2227 55.3926 88.3965 55.4531 88.5918 55.5195C88.8496 55.625 89.0801 55.7324 89.2832 55.8418C89.4902 55.9512 89.666 56.0762 89.8105 56.2168C89.9551 56.3535 90.0664 56.5137 90.1445 56.6973C90.2227 56.877 90.2617 57.0918 90.2617 57.3418C90.2617 57.6465 90.1914 57.9121 90.0508 58.1387C89.9102 58.3652 89.7227 58.5527 89.4883 58.7012C89.2539 58.8496 88.9824 58.959 88.6738 59.0293C88.3691 59.1035 88.0469 59.1406 87.707 59.1406C87.0508 59.1406 86.4824 59.0312 86.002 58.8125ZM96.6367 56.3691H92.5469C92.5625 56.9238 92.7324 57.3516 93.0566 57.6523C93.3848 57.9531 93.834 58.1035 94.4043 58.1035C95.0449 58.1035 95.6328 57.9121 96.168 57.5293V58.625C95.6211 58.9688 94.8984 59.1406 94 59.1406C93.1172 59.1406 92.4238 58.8691 91.9199 58.3262C91.4199 57.7793 91.1699 57.0117 91.1699 56.0234C91.1699 55.0898 91.4453 54.3301 91.9961 53.7441C92.5508 53.1543 93.2383 52.8594 94.0586 52.8594C94.8789 52.8594 95.5137 53.123 95.9629 53.6504C96.4121 54.1777 96.6367 54.9102 96.6367 55.8477V56.3691ZM95.3242 55.4082C95.3203 54.9199 95.2051 54.541 94.9785 54.2715C94.752 53.998 94.4395 53.8613 94.041 53.8613C93.6504 53.8613 93.3184 54.0039 93.0449 54.2891C92.7754 54.5742 92.6094 54.9473 92.5469 55.4082H95.3242ZM103.275 59H101.916V55.6191C101.916 54.498 101.52 53.9375 100.727 53.9375C100.312 53.9375 99.9707 54.0938 99.7012 54.4062C99.4316 54.7148 99.2969 55.1055 99.2969 55.5781V59H97.9316V53H99.2969V53.9961H99.3203C99.7695 53.2383 100.418 52.8594 101.266 52.8594C101.918 52.8594 102.416 53.0723 102.76 53.498C103.104 53.9199 103.275 54.5312 103.275 55.332V59ZM110.107 53L107.787 59H106.316L104.107 53H105.584L106.914 57.1953C107.016 57.5039 107.078 57.7734 107.102 58.0039H107.119C107.154 57.7148 107.209 57.4531 107.283 57.2188L108.678 53H110.107ZM113.6 59.1406C112.674 59.1406 111.934 58.8613 111.379 58.3027C110.828 57.7402 110.553 56.9961 110.553 56.0703C110.553 55.0625 110.84 54.2754 111.414 53.709C111.992 53.1426 112.77 52.8594 113.746 52.8594C114.684 52.8594 115.414 53.1348 115.938 53.6855C116.461 54.2363 116.723 55 116.723 55.9766C116.723 56.9336 116.439 57.7012 115.873 58.2793C115.311 58.8535 114.553 59.1406 113.6 59.1406ZM113.664 53.9434C113.133 53.9434 112.713 54.1289 112.404 54.5C112.096 54.8711 111.941 55.3828 111.941 56.0352C111.941 56.6641 112.098 57.1602 112.41 57.5234C112.723 57.8828 113.141 58.0625 113.664 58.0625C114.199 58.0625 114.609 57.8848 114.895 57.5293C115.184 57.1738 115.328 56.668 115.328 56.0117C115.328 55.3516 115.184 54.8418 114.895 54.4824C114.609 54.123 114.199 53.9434 113.664 53.9434ZM119.477 59H118.111V50.1172H119.477V59ZM126.42 53L124.1 59H122.629L120.42 53H121.896L123.227 57.1953C123.328 57.5039 123.391 57.7734 123.414 58.0039H123.432C123.467 57.7148 123.521 57.4531 123.596 57.2188L124.99 53H126.42ZM128.031 51.7402C127.809 51.7402 127.617 51.668 127.457 51.5234C127.301 51.3789 127.223 51.1953 127.223 50.9727C127.223 50.75 127.301 50.5645 127.457 50.416C127.617 50.2676 127.809 50.1934 128.031 50.1934C128.262 50.1934 128.457 50.2676 128.617 50.416C128.777 50.5645 128.857 50.75 128.857 50.9727C128.857 51.1836 128.777 51.3652 128.617 51.5176C128.457 51.666 128.262 51.7402 128.031 51.7402ZM128.705 59H127.346V53H128.705V59ZM135.941 59H134.582V57.9805H134.559C134.121 58.7539 133.447 59.1406 132.537 59.1406C131.799 59.1406 131.207 58.873 130.762 58.3379C130.32 57.7988 130.1 57.0664 130.1 56.1406C130.1 55.1484 130.344 54.3535 130.832 53.7559C131.324 53.1582 131.979 52.8594 132.795 52.8594C133.604 52.8594 134.191 53.1836 134.559 53.832H134.582V50.1172H135.941V59ZM134.6 56.2578V55.4727C134.6 55.0469 134.461 54.6855 134.184 54.3887C133.906 54.0918 133.553 53.9434 133.123 53.9434C132.615 53.9434 132.215 54.1328 131.922 54.5117C131.633 54.8906 131.488 55.416 131.488 56.0879C131.488 56.6973 131.627 57.1797 131.904 57.5352C132.186 57.8867 132.562 58.0625 133.035 58.0625C133.5 58.0625 133.877 57.8926 134.166 57.5527C134.455 57.209 134.6 56.7773 134.6 56.2578ZM142.322 59H141.004V58.0625H140.98C140.566 58.7812 139.959 59.1406 139.158 59.1406C138.568 59.1406 138.105 58.9805 137.77 58.6602C137.438 58.3398 137.271 57.916 137.271 57.3887C137.271 56.2559 137.924 55.5957 139.229 55.4082L141.01 55.1562C141.01 54.3008 140.604 53.873 139.791 53.873C139.076 53.873 138.432 54.1191 137.857 54.6113V53.4219C138.49 53.0469 139.221 52.8594 140.049 52.8594C141.564 52.8594 142.322 53.6055 142.322 55.0977V59ZM141.01 56.0527L139.75 56.2285C139.359 56.2793 139.064 56.375 138.865 56.5156C138.67 56.6523 138.572 56.8945 138.572 57.2422C138.572 57.4961 138.662 57.7051 138.842 57.8691C139.025 58.0293 139.27 58.1094 139.574 58.1094C139.988 58.1094 140.33 57.9648 140.6 57.6758C140.873 57.3828 141.01 57.0156 141.01 56.5742V56.0527ZM151.586 58.7246C151.105 59.002 150.537 59.1406 149.881 59.1406C148.99 59.1406 148.271 58.8633 147.725 58.3086C147.178 57.75 146.904 57.0273 146.904 56.1406C146.904 55.1523 147.197 54.3594 147.783 53.7617C148.373 53.1602 149.16 52.8594 150.145 52.8594C150.691 52.8594 151.174 52.9551 151.592 53.1465V54.4121C151.174 54.0996 150.729 53.9434 150.256 53.9434C149.682 53.9434 149.211 54.1387 148.844 54.5293C148.477 54.916 148.293 55.4238 148.293 56.0527C148.293 56.6738 148.465 57.1641 148.809 57.5234C149.156 57.8828 149.621 58.0625 150.203 58.0625C150.691 58.0625 151.152 57.8887 151.586 57.541V58.7246ZM155.6 59.1406C154.674 59.1406 153.934 58.8613 153.379 58.3027C152.828 57.7402 152.553 56.9961 152.553 56.0703C152.553 55.0625 152.84 54.2754 153.414 53.709C153.992 53.1426 154.77 52.8594 155.746 52.8594C156.684 52.8594 157.414 53.1348 157.938 53.6855C158.461 54.2363 158.723 55 158.723 55.9766C158.723 56.9336 158.439 57.7012 157.873 58.2793C157.311 58.8535 156.553 59.1406 155.6 59.1406ZM155.664 53.9434C155.133 53.9434 154.713 54.1289 154.404 54.5C154.096 54.8711 153.941 55.3828 153.941 56.0352C153.941 56.6641 154.098 57.1602 154.41 57.5234C154.723 57.8828 155.141 58.0625 155.664 58.0625C156.199 58.0625 156.609 57.8848 156.895 57.5293C157.184 57.1738 157.328 56.668 157.328 56.0117C157.328 55.3516 157.184 54.8418 156.895 54.4824C156.609 54.123 156.199 53.9434 155.664 53.9434ZM169.082 59H167.723V55.7305C167.723 55.1016 167.633 54.6465 167.453 54.3652C167.277 54.084 166.979 53.9434 166.557 53.9434C166.201 53.9434 165.898 54.1211 165.648 54.4766C165.402 54.832 165.279 55.2578 165.279 55.7539V59H163.914V55.6191C163.914 54.502 163.52 53.9434 162.73 53.9434C162.363 53.9434 162.061 54.1113 161.822 54.4473C161.588 54.7832 161.471 55.2188 161.471 55.7539V59H160.111V53H161.471V53.9492H161.494C161.928 53.2227 162.559 52.8594 163.387 52.8594C163.801 52.8594 164.162 52.9746 164.471 53.2051C164.783 53.4316 164.996 53.7305 165.109 54.1016C165.555 53.2734 166.219 52.8594 167.102 52.8594C168.422 52.8594 169.082 53.6738 169.082 55.3027V59ZM180.689 59H179.061L177.719 56.75C177.598 56.543 177.479 56.3672 177.361 56.2227C177.248 56.0742 177.131 55.9531 177.01 55.8594C176.893 55.7656 176.764 55.6973 176.623 55.6543C176.482 55.6113 176.324 55.5898 176.148 55.5898H175.586V59H174.197V50.5977H176.963C177.357 50.5977 177.721 50.6445 178.053 50.7383C178.385 50.832 178.674 50.9746 178.92 51.166C179.166 51.3535 179.357 51.5898 179.494 51.875C179.635 52.1562 179.705 52.4863 179.705 52.8652C179.705 53.1621 179.66 53.4355 179.57 53.6855C179.484 53.9316 179.359 54.1523 179.195 54.3477C179.035 54.5391 178.84 54.7031 178.609 54.8398C178.383 54.9766 178.127 55.082 177.842 55.1562V55.1797C177.994 55.2656 178.127 55.3613 178.24 55.4668C178.354 55.5684 178.461 55.6738 178.562 55.7832C178.664 55.8926 178.764 56.0176 178.861 56.1582C178.963 56.2949 179.074 56.4551 179.195 56.6387L180.689 59ZM175.586 51.7285V54.459H176.746C176.961 54.459 177.158 54.4258 177.338 54.3594C177.521 54.293 177.68 54.1973 177.812 54.0723C177.945 53.9473 178.049 53.7949 178.123 53.6152C178.197 53.4355 178.234 53.2344 178.234 53.0117C178.234 52.6094 178.107 52.2949 177.854 52.0684C177.6 51.8418 177.234 51.7285 176.758 51.7285H175.586ZM186.285 56.3691H182.195C182.211 56.9238 182.381 57.3516 182.705 57.6523C183.033 57.9531 183.482 58.1035 184.053 58.1035C184.693 58.1035 185.281 57.9121 185.816 57.5293V58.625C185.27 58.9688 184.547 59.1406 183.648 59.1406C182.766 59.1406 182.072 58.8691 181.568 58.3262C181.068 57.7793 180.818 57.0117 180.818 56.0234C180.818 55.0898 181.094 54.3301 181.645 53.7441C182.199 53.1543 182.887 52.8594 183.707 52.8594C184.527 52.8594 185.162 53.123 185.611 53.6504C186.061 54.1777 186.285 54.9102 186.285 55.8477V56.3691ZM184.973 55.4082C184.969 54.9199 184.854 54.541 184.627 54.2715C184.4 53.998 184.088 53.8613 183.689 53.8613C183.299 53.8613 182.967 54.0039 182.693 54.2891C182.424 54.5742 182.258 54.9473 182.195 55.4082H184.973ZM192.186 59H190.867V58.0625H190.844C190.43 58.7812 189.822 59.1406 189.021 59.1406C188.432 59.1406 187.969 58.9805 187.633 58.6602C187.301 58.3398 187.135 57.916 187.135 57.3887C187.135 56.2559 187.787 55.5957 189.092 55.4082L190.873 55.1562C190.873 54.3008 190.467 53.873 189.654 53.873C188.939 53.873 188.295 54.1191 187.721 54.6113V53.4219C188.354 53.0469 189.084 52.8594 189.912 52.8594C191.428 52.8594 192.186 53.6055 192.186 55.0977V59ZM190.873 56.0527L189.613 56.2285C189.223 56.2793 188.928 56.375 188.729 56.5156C188.533 56.6523 188.436 56.8945 188.436 57.2422C188.436 57.4961 188.525 57.7051 188.705 57.8691C188.889 58.0293 189.133 58.1094 189.438 58.1094C189.852 58.1094 190.193 57.9648 190.463 57.6758C190.736 57.3828 190.873 57.0156 190.873 56.5742V56.0527ZM198.145 58.7246C197.664 59.002 197.096 59.1406 196.439 59.1406C195.549 59.1406 194.83 58.8633 194.283 58.3086C193.736 57.75 193.463 57.0273 193.463 56.1406C193.463 55.1523 193.756 54.3594 194.342 53.7617C194.932 53.1602 195.719 52.8594 196.703 52.8594C197.25 52.8594 197.732 52.9551 198.15 53.1465V54.4121C197.732 54.0996 197.287 53.9434 196.814 53.9434C196.24 53.9434 195.77 54.1387 195.402 54.5293C195.035 54.916 194.852 55.4238 194.852 56.0527C194.852 56.6738 195.023 57.1641 195.367 57.5234C195.715 57.8828 196.18 58.0625 196.762 58.0625C197.25 58.0625 197.711 57.8887 198.145 57.541V58.7246ZM202.662 58.9355C202.396 59.0684 202.047 59.1348 201.613 59.1348C200.449 59.1348 199.867 58.5762 199.867 57.459V54.0664H198.865V53H199.867V51.6113L201.227 51.2246V53H202.662V54.0664H201.227V57.0664C201.227 57.4219 201.291 57.6758 201.42 57.8281C201.549 57.9805 201.764 58.0566 202.064 58.0566C202.295 58.0566 202.494 57.9902 202.662 57.8574V58.9355ZM204.396 59.1289C204.162 59.1289 203.963 59.0527 203.799 58.9004C203.635 58.7441 203.553 58.5586 203.553 58.3438C203.553 58.125 203.635 57.9375 203.799 57.7812C203.963 57.625 204.162 57.5469 204.396 57.5469C204.635 57.5469 204.836 57.625 205 57.7812C205.168 57.9375 205.252 58.125 205.252 58.3438C205.252 58.5586 205.168 58.7441 205 58.9004C204.836 59.0527 204.635 59.1289 204.396 59.1289ZM208.088 58.748C208.088 59.7324 207.881 60.4902 207.467 61.0215C207.053 61.5566 206.461 61.8242 205.691 61.8242C205.406 61.8242 205.129 61.7617 204.859 61.6367V60.4707C205.113 60.6465 205.354 60.7344 205.58 60.7344C206.346 60.7344 206.729 60.0586 206.729 58.707V53H208.088V58.748ZM207.42 51.7402C207.197 51.7402 207.006 51.668 206.846 51.5234C206.689 51.3789 206.611 51.1953 206.611 50.9727C206.611 50.75 206.689 50.5645 206.846 50.416C207.006 50.2676 207.197 50.1934 207.42 50.1934C207.646 50.1934 207.84 50.2676 208 50.416C208.16 50.5645 208.24 50.75 208.24 50.9727C208.24 51.1836 208.16 51.3652 208 51.5176C207.84 51.666 207.646 51.7402 207.42 51.7402ZM209.494 58.8125V57.5527C210.002 57.9395 210.562 58.1328 211.176 58.1328C211.996 58.1328 212.406 57.8906 212.406 57.4062C212.406 57.2695 212.371 57.1543 212.301 57.0605C212.23 56.9629 212.135 56.877 212.014 56.8027C211.896 56.7285 211.756 56.6621 211.592 56.6035C211.432 56.5449 211.252 56.4785 211.053 56.4043C210.807 56.3066 210.584 56.2031 210.385 56.0938C210.189 55.9844 210.025 55.8613 209.893 55.7246C209.764 55.584 209.666 55.4258 209.6 55.25C209.533 55.0742 209.5 54.8691 209.5 54.6348C209.5 54.3457 209.568 54.0918 209.705 53.873C209.842 53.6504 210.025 53.4648 210.256 53.3164C210.486 53.1641 210.748 53.0508 211.041 52.9766C211.334 52.8984 211.637 52.8594 211.949 52.8594C212.504 52.8594 213 52.9434 213.438 53.1113V54.3008C213.016 54.0117 212.531 53.8672 211.984 53.8672C211.812 53.8672 211.656 53.8848 211.516 53.9199C211.379 53.9551 211.262 54.0039 211.164 54.0664C211.066 54.1289 210.99 54.2051 210.936 54.2949C210.881 54.3809 210.854 54.4766 210.854 54.582C210.854 54.7109 210.881 54.8203 210.936 54.9102C210.99 55 211.07 55.0801 211.176 55.1504C211.285 55.2168 211.414 55.2793 211.562 55.3379C211.715 55.3926 211.889 55.4531 212.084 55.5195C212.342 55.625 212.572 55.7324 212.775 55.8418C212.982 55.9512 213.158 56.0762 213.303 56.2168C213.447 56.3535 213.559 56.5137 213.637 56.6973C213.715 56.877 213.754 57.0918 213.754 57.3418C213.754 57.6465 213.684 57.9121 213.543 58.1387C213.402 58.3652 213.215 58.5527 212.98 58.7012C212.746 58.8496 212.475 58.959 212.166 59.0293C211.861 59.1035 211.539 59.1406 211.199 59.1406C210.543 59.1406 209.975 59.0312 209.494 58.8125ZM216.32 57.5996L215.412 60.5234H214.393L215.037 57.5996H216.32ZM221.014 58.666V57.2305C221.143 57.3477 221.295 57.4531 221.471 57.5469C221.65 57.6406 221.84 57.7207 222.039 57.7871C222.238 57.8496 222.438 57.8984 222.637 57.9336C222.836 57.9688 223.02 57.9863 223.188 57.9863C223.773 57.9863 224.209 57.8887 224.494 57.6934C224.783 57.498 224.928 57.2148 224.928 56.8438C224.928 56.6445 224.879 56.4727 224.781 56.3281C224.688 56.1797 224.555 56.0449 224.383 55.9238C224.211 55.8027 224.008 55.6875 223.773 55.5781C223.543 55.4648 223.295 55.3477 223.029 55.2266C222.744 55.0742 222.479 54.9199 222.232 54.7637C221.986 54.6074 221.771 54.4355 221.588 54.248C221.408 54.0566 221.266 53.8418 221.16 53.6035C221.059 53.3652 221.008 53.0859 221.008 52.7656C221.008 52.3711 221.096 52.0293 221.271 51.7402C221.451 51.4473 221.686 51.207 221.975 51.0195C222.268 50.8281 222.6 50.6875 222.971 50.5977C223.342 50.5039 223.721 50.457 224.107 50.457C224.986 50.457 225.627 50.5566 226.029 50.7559V52.1328C225.553 51.7891 224.939 51.6172 224.189 51.6172C223.982 51.6172 223.775 51.6367 223.568 51.6758C223.365 51.7148 223.182 51.7793 223.018 51.8691C222.857 51.959 222.727 52.0742 222.625 52.2148C222.523 52.3555 222.473 52.5254 222.473 52.7246C222.473 52.9121 222.512 53.0742 222.59 53.2109C222.668 53.3477 222.781 53.4727 222.93 53.5859C223.082 53.6992 223.266 53.8105 223.48 53.9199C223.699 54.0254 223.951 54.1406 224.236 54.2656C224.529 54.418 224.805 54.5781 225.062 54.7461C225.324 54.9141 225.553 55.0996 225.748 55.3027C225.947 55.5059 226.104 55.7324 226.217 55.9824C226.334 56.2285 226.393 56.5098 226.393 56.8262C226.393 57.252 226.307 57.6113 226.135 57.9043C225.963 58.1973 225.73 58.4355 225.438 58.6191C225.148 58.8027 224.814 58.9355 224.436 59.0176C224.057 59.0996 223.656 59.1406 223.234 59.1406C223.094 59.1406 222.92 59.1289 222.713 59.1055C222.51 59.0859 222.301 59.0547 222.086 59.0117C221.871 58.9727 221.668 58.9238 221.477 58.8652C221.285 58.8066 221.131 58.7402 221.014 58.666ZM230.6 58.9355C230.334 59.0684 229.984 59.1348 229.551 59.1348C228.387 59.1348 227.805 58.5762 227.805 57.459V54.0664H226.803V53H227.805V51.6113L229.164 51.2246V53H230.6V54.0664H229.164V57.0664C229.164 57.4219 229.229 57.6758 229.357 57.8281C229.486 57.9805 229.701 58.0566 230.002 58.0566C230.232 58.0566 230.432 57.9902 230.6 57.8574V58.9355ZM236.969 53L234.262 59.9609C233.699 61.2031 232.91 61.8242 231.895 61.8242C231.609 61.8242 231.371 61.7988 231.18 61.748V60.6172C231.395 60.6875 231.59 60.7227 231.766 60.7227C232.273 60.7227 232.652 60.4727 232.902 59.9727L233.307 58.9883L230.922 53H232.428L233.857 57.3594C233.873 57.4141 233.908 57.5586 233.963 57.793H233.992C234.012 57.7031 234.047 57.5625 234.098 57.3711L235.598 53H236.969ZM239.242 59H237.877V50.1172H239.242V59ZM246.098 56.3691H242.008C242.023 56.9238 242.193 57.3516 242.518 57.6523C242.846 57.9531 243.295 58.1035 243.865 58.1035C244.506 58.1035 245.094 57.9121 245.629 57.5293V58.625C245.082 58.9688 244.359 59.1406 243.461 59.1406C242.578 59.1406 241.885 58.8691 241.381 58.3262C240.881 57.7793 240.631 57.0117 240.631 56.0234C240.631 55.0898 240.906 54.3301 241.457 53.7441C242.012 53.1543 242.699 52.8594 243.52 52.8594C244.34 52.8594 244.975 53.123 245.424 53.6504C245.873 54.1777 246.098 54.9102 246.098 55.8477V56.3691ZM244.785 55.4082C244.781 54.9199 244.666 54.541 244.439 54.2715C244.213 53.998 243.9 53.8613 243.502 53.8613C243.111 53.8613 242.779 54.0039 242.506 54.2891C242.236 54.5742 242.07 54.9473 242.008 55.4082H244.785ZM252.848 59H251.488V57.9805H251.465C251.027 58.7539 250.354 59.1406 249.443 59.1406C248.705 59.1406 248.113 58.873 247.668 58.3379C247.227 57.7988 247.006 57.0664 247.006 56.1406C247.006 55.1484 247.25 54.3535 247.738 53.7559C248.23 53.1582 248.885 52.8594 249.701 52.8594C250.51 52.8594 251.098 53.1836 251.465 53.832H251.488V50.1172H252.848V59ZM251.506 56.2578V55.4727C251.506 55.0469 251.367 54.6855 251.09 54.3887C250.812 54.0918 250.459 53.9434 250.029 53.9434C249.521 53.9434 249.121 54.1328 248.828 54.5117C248.539 54.8906 248.395 55.416 248.395 56.0879C248.395 56.6973 248.533 57.1797 248.811 57.5352C249.092 57.8867 249.469 58.0625 249.941 58.0625C250.406 58.0625 250.783 57.8926 251.072 57.5527C251.361 57.209 251.506 56.7773 251.506 56.2578ZM263.939 58.6484C263.307 58.9766 262.52 59.1406 261.578 59.1406C260.359 59.1406 259.383 58.7559 258.648 57.9863C257.914 57.2168 257.547 56.207 257.547 54.957C257.547 53.6133 257.959 52.5273 258.783 51.6992C259.611 50.8711 260.656 50.457 261.918 50.457C262.73 50.457 263.404 50.5723 263.939 50.8027V52.1855C263.373 51.8496 262.748 51.6816 262.064 51.6816C261.154 51.6816 260.416 51.9727 259.85 52.5547C259.287 53.1367 259.006 53.9141 259.006 54.8867C259.006 55.8125 259.27 56.5508 259.797 57.1016C260.324 57.6484 261.018 57.9219 261.877 57.9219C262.67 57.9219 263.357 57.7344 263.939 57.3594V58.6484ZM268.041 59.1406C267.115 59.1406 266.375 58.8613 265.82 58.3027C265.27 57.7402 264.994 56.9961 264.994 56.0703C264.994 55.0625 265.281 54.2754 265.855 53.709C266.434 53.1426 267.211 52.8594 268.188 52.8594C269.125 52.8594 269.855 53.1348 270.379 53.6855C270.902 54.2363 271.164 55 271.164 55.9766C271.164 56.9336 270.881 57.7012 270.314 58.2793C269.752 58.8535 268.994 59.1406 268.041 59.1406ZM268.105 53.9434C267.574 53.9434 267.154 54.1289 266.846 54.5C266.537 54.8711 266.383 55.3828 266.383 56.0352C266.383 56.6641 266.539 57.1602 266.852 57.5234C267.164 57.8828 267.582 58.0625 268.105 58.0625C268.641 58.0625 269.051 57.8848 269.336 57.5293C269.625 57.1738 269.77 56.668 269.77 56.0117C269.77 55.3516 269.625 54.8418 269.336 54.4824C269.051 54.123 268.641 53.9434 268.105 53.9434ZM281.523 59H280.164V55.7305C280.164 55.1016 280.074 54.6465 279.895 54.3652C279.719 54.084 279.42 53.9434 278.998 53.9434C278.643 53.9434 278.34 54.1211 278.09 54.4766C277.844 54.832 277.721 55.2578 277.721 55.7539V59H276.355V55.6191C276.355 54.502 275.961 53.9434 275.172 53.9434C274.805 53.9434 274.502 54.1113 274.264 54.4473C274.029 54.7832 273.912 55.2188 273.912 55.7539V59H272.553V53H273.912V53.9492H273.936C274.369 53.2227 275 52.8594 275.828 52.8594C276.242 52.8594 276.604 52.9746 276.912 53.2051C277.225 53.4316 277.438 53.7305 277.551 54.1016C277.996 53.2734 278.66 52.8594 279.543 52.8594C280.863 52.8594 281.523 53.6738 281.523 55.3027V59ZM284.564 58.1152H284.541V61.7598H283.182V53H284.541V54.0547H284.564C285.029 53.2578 285.709 52.8594 286.604 52.8594C287.365 52.8594 287.959 53.127 288.385 53.6621C288.811 54.1973 289.023 54.916 289.023 55.8184C289.023 56.8184 288.783 57.6191 288.303 58.2207C287.822 58.8223 287.166 59.123 286.334 59.123C285.568 59.123 284.979 58.7871 284.564 58.1152ZM284.529 55.748V56.4922C284.529 56.9297 284.668 57.3008 284.945 57.6055C285.227 57.9102 285.582 58.0625 286.012 58.0625C286.516 58.0625 286.91 57.8672 287.195 57.4766C287.484 57.082 287.629 56.5332 287.629 55.8301C287.629 55.2402 287.494 54.7793 287.225 54.4473C286.959 54.1113 286.598 53.9434 286.141 53.9434C285.656 53.9434 285.266 54.1152 284.969 54.459C284.676 54.8027 284.529 55.2324 284.529 55.748ZM293.072 59.1406C292.146 59.1406 291.406 58.8613 290.852 58.3027C290.301 57.7402 290.025 56.9961 290.025 56.0703C290.025 55.0625 290.312 54.2754 290.887 53.709C291.465 53.1426 292.242 52.8594 293.219 52.8594C294.156 52.8594 294.887 53.1348 295.41 53.6855C295.934 54.2363 296.195 55 296.195 55.9766C296.195 56.9336 295.912 57.7012 295.346 58.2793C294.783 58.8535 294.025 59.1406 293.072 59.1406ZM293.137 53.9434C292.605 53.9434 292.186 54.1289 291.877 54.5C291.568 54.8711 291.414 55.3828 291.414 56.0352C291.414 56.6641 291.57 57.1602 291.883 57.5234C292.195 57.8828 292.613 58.0625 293.137 58.0625C293.672 58.0625 294.082 57.8848 294.367 57.5293C294.656 57.1738 294.801 56.668 294.801 56.0117C294.801 55.3516 294.656 54.8418 294.367 54.4824C294.082 54.123 293.672 53.9434 293.137 53.9434ZM302.928 59H301.568V55.6191C301.568 54.498 301.172 53.9375 300.379 53.9375C299.965 53.9375 299.623 54.0938 299.354 54.4062C299.084 54.7148 298.949 55.1055 298.949 55.5781V59H297.584V53H298.949V53.9961H298.973C299.422 53.2383 300.07 52.8594 300.918 52.8594C301.57 52.8594 302.068 53.0723 302.412 53.498C302.756 53.9199 302.928 54.5312 302.928 55.332V59ZM309.672 56.3691H305.582C305.598 56.9238 305.768 57.3516 306.092 57.6523C306.42 57.9531 306.869 58.1035 307.439 58.1035C308.08 58.1035 308.668 57.9121 309.203 57.5293V58.625C308.656 58.9688 307.934 59.1406 307.035 59.1406C306.152 59.1406 305.459 58.8691 304.955 58.3262C304.455 57.7793 304.205 57.0117 304.205 56.0234C304.205 55.0898 304.48 54.3301 305.031 53.7441C305.586 53.1543 306.273 52.8594 307.094 52.8594C307.914 52.8594 308.549 53.123 308.998 53.6504C309.447 54.1777 309.672 54.9102 309.672 55.8477V56.3691ZM308.359 55.4082C308.355 54.9199 308.24 54.541 308.014 54.2715C307.787 53.998 307.475 53.8613 307.076 53.8613C306.686 53.8613 306.354 54.0039 306.08 54.2891C305.811 54.5742 305.645 54.9473 305.582 55.4082H308.359ZM316.311 59H314.951V55.6191C314.951 54.498 314.555 53.9375 313.762 53.9375C313.348 53.9375 313.006 54.0938 312.736 54.4062C312.467 54.7148 312.332 55.1055 312.332 55.5781V59H310.967V53H312.332V53.9961H312.355C312.805 53.2383 313.453 52.8594 314.301 52.8594C314.953 52.8594 315.451 53.0723 315.795 53.498C316.139 53.9199 316.311 54.5312 316.311 55.332V59ZM321.139 58.9355C320.873 59.0684 320.523 59.1348 320.09 59.1348C318.926 59.1348 318.344 58.5762 318.344 57.459V54.0664H317.342V53H318.344V51.6113L319.703 51.2246V53H321.139V54.0664H319.703V57.0664C319.703 57.4219 319.768 57.6758 319.896 57.8281C320.025 57.9805 320.24 58.0566 320.541 58.0566C320.771 58.0566 320.971 57.9902 321.139 57.8574V58.9355ZM321.936 58.8125V57.5527C322.443 57.9395 323.004 58.1328 323.617 58.1328C324.438 58.1328 324.848 57.8906 324.848 57.4062C324.848 57.2695 324.812 57.1543 324.742 57.0605C324.672 56.9629 324.576 56.877 324.455 56.8027C324.338 56.7285 324.197 56.6621 324.033 56.6035C323.873 56.5449 323.693 56.4785 323.494 56.4043C323.248 56.3066 323.025 56.2031 322.826 56.0938C322.631 55.9844 322.467 55.8613 322.334 55.7246C322.205 55.584 322.107 55.4258 322.041 55.25C321.975 55.0742 321.941 54.8691 321.941 54.6348C321.941 54.3457 322.01 54.0918 322.146 53.873C322.283 53.6504 322.467 53.4648 322.697 53.3164C322.928 53.1641 323.189 53.0508 323.482 52.9766C323.775 52.8984 324.078 52.8594 324.391 52.8594C324.945 52.8594 325.441 52.9434 325.879 53.1113V54.3008C325.457 54.0117 324.973 53.8672 324.426 53.8672C324.254 53.8672 324.098 53.8848 323.957 53.9199C323.82 53.9551 323.703 54.0039 323.605 54.0664C323.508 54.1289 323.432 54.2051 323.377 54.2949C323.322 54.3809 323.295 54.4766 323.295 54.582C323.295 54.7109 323.322 54.8203 323.377 54.9102C323.432 55 323.512 55.0801 323.617 55.1504C323.727 55.2168 323.855 55.2793 324.004 55.3379C324.156 55.3926 324.33 55.4531 324.525 55.5195C324.783 55.625 325.014 55.7324 325.217 55.8418C325.424 55.9512 325.6 56.0762 325.744 56.2168C325.889 56.3535 326 56.5137 326.078 56.6973C326.156 56.877 326.195 57.0918 326.195 57.3418C326.195 57.6465 326.125 57.9121 325.984 58.1387C325.844 58.3652 325.656 58.5527 325.422 58.7012C325.188 58.8496 324.916 58.959 324.607 59.0293C324.303 59.1035 323.98 59.1406 323.641 59.1406C322.984 59.1406 322.416 59.0312 321.936 58.8125ZM21.9648 72.3691H17.875C17.8906 72.9238 18.0605 73.3516 18.3848 73.6523C18.7129 73.9531 19.1621 74.1035 19.7324 74.1035C20.373 74.1035 20.9609 73.9121 21.4961 73.5293V74.625C20.9492 74.9688 20.2266 75.1406 19.3281 75.1406C18.4453 75.1406 17.752 74.8691 17.248 74.3262C16.748 73.7793 16.498 73.0117 16.498 72.0234C16.498 71.0898 16.7734 70.3301 17.3242 69.7441C17.8789 69.1543 18.5664 68.8594 19.3867 68.8594C20.207 68.8594 20.8418 69.123 21.291 69.6504C21.7402 70.1777 21.9648 70.9102 21.9648 71.8477V72.3691ZM20.6523 71.4082C20.6484 70.9199 20.5332 70.541 20.3066 70.2715C20.0801 69.998 19.7676 69.8613 19.3691 69.8613C18.9785 69.8613 18.6465 70.0039 18.373 70.2891C18.1035 70.5742 17.9375 70.9473 17.875 71.4082H20.6523ZM31.3691 75H26.7168V66.5977H28.1113V73.8223H31.3691V75ZM35.0957 75.1406C34.1699 75.1406 33.4297 74.8613 32.875 74.3027C32.3242 73.7402 32.0488 72.9961 32.0488 72.0703C32.0488 71.0625 32.3359 70.2754 32.9102 69.709C33.4883 69.1426 34.2656 68.8594 35.2422 68.8594C36.1797 68.8594 36.9102 69.1348 37.4336 69.6855C37.957 70.2363 38.2188 71 38.2188 71.9766C38.2188 72.9336 37.9355 73.7012 37.3691 74.2793C36.8066 74.8535 36.0488 75.1406 35.0957 75.1406ZM35.1602 69.9434C34.6289 69.9434 34.209 70.1289 33.9004 70.5C33.5918 70.8711 33.4375 71.3828 33.4375 72.0352C33.4375 72.6641 33.5938 73.1602 33.9062 73.5234C34.2188 73.8828 34.6367 74.0625 35.1602 74.0625C35.6953 74.0625 36.1055 73.8848 36.3906 73.5293C36.6797 73.1738 36.8242 72.668 36.8242 72.0117C36.8242 71.3516 36.6797 70.8418 36.3906 70.4824C36.1055 70.123 35.6953 69.9434 35.1602 69.9434ZM42.7715 74.9355C42.5059 75.0684 42.1562 75.1348 41.7227 75.1348C40.5586 75.1348 39.9766 74.5762 39.9766 73.459V70.0664H38.9746V69H39.9766V67.6113L41.3359 67.2246V69H42.7715V70.0664H41.3359V73.0664C41.3359 73.4219 41.4004 73.6758 41.5293 73.8281C41.6582 73.9805 41.873 74.0566 42.1738 74.0566C42.4043 74.0566 42.6035 73.9902 42.7715 73.8574V74.9355ZM47.1074 74.9355C46.8418 75.0684 46.4922 75.1348 46.0586 75.1348C44.8945 75.1348 44.3125 74.5762 44.3125 73.459V70.0664H43.3105V69H44.3125V67.6113L45.6719 67.2246V69H47.1074V70.0664H45.6719V73.0664C45.6719 73.4219 45.7363 73.6758 45.8652 73.8281C45.9941 73.9805 46.209 74.0566 46.5098 74.0566C46.7402 74.0566 46.9395 73.9902 47.1074 73.8574V74.9355ZM48.9648 67.7402C48.7422 67.7402 48.5508 67.668 48.3906 67.5234C48.2344 67.3789 48.1562 67.1953 48.1562 66.9727C48.1562 66.75 48.2344 66.5645 48.3906 66.416C48.5508 66.2676 48.7422 66.1934 48.9648 66.1934C49.1953 66.1934 49.3906 66.2676 49.5508 66.416C49.7109 66.5645 49.791 66.75 49.791 66.9727C49.791 67.1836 49.7109 67.3652 49.5508 67.5176C49.3906 67.666 49.1953 67.7402 48.9648 67.7402ZM49.6387 75H48.2793V69H49.6387V75ZM56.5 72.3691H52.4102C52.4258 72.9238 52.5957 73.3516 52.9199 73.6523C53.248 73.9531 53.6973 74.1035 54.2676 74.1035C54.9082 74.1035 55.4961 73.9121 56.0312 73.5293V74.625C55.4844 74.9688 54.7617 75.1406 53.8633 75.1406C52.9805 75.1406 52.2871 74.8691 51.7832 74.3262C51.2832 73.7793 51.0332 73.0117 51.0332 72.0234C51.0332 71.0898 51.3086 70.3301 51.8594 69.7441C52.4141 69.1543 53.1016 68.8594 53.9219 68.8594C54.7422 68.8594 55.377 69.123 55.8262 69.6504C56.2754 70.1777 56.5 70.9102 56.5 71.8477V72.3691ZM55.1875 71.4082C55.1836 70.9199 55.0684 70.541 54.8418 70.2715C54.6152 69.998 54.3027 69.8613 53.9043 69.8613C53.5137 69.8613 53.1816 70.0039 52.9082 70.2891C52.6387 70.5742 52.4727 70.9473 52.4102 71.4082H55.1875ZM59.0664 73.5996L58.1582 76.5234H57.1387L57.7832 73.5996H59.0664ZM65.377 74.1152H65.3535V77.7598H63.9941V69H65.3535V70.0547H65.377C65.8418 69.2578 66.5215 68.8594 67.416 68.8594C68.1777 68.8594 68.7715 69.127 69.1973 69.6621C69.623 70.1973 69.8359 70.916 69.8359 71.8184C69.8359 72.8184 69.5957 73.6191 69.1152 74.2207C68.6348 74.8223 67.9785 75.123 67.1465 75.123C66.3809 75.123 65.791 74.7871 65.377 74.1152ZM65.3418 71.748V72.4922C65.3418 72.9297 65.4805 73.3008 65.7578 73.6055C66.0391 73.9102 66.3945 74.0625 66.8242 74.0625C67.3281 74.0625 67.7227 73.8672 68.0078 73.4766C68.2969 73.082 68.4414 72.5332 68.4414 71.8301C68.4414 71.2402 68.3066 70.7793 68.0371 70.4473C67.7715 70.1113 67.4102 69.9434 66.9531 69.9434C66.4688 69.9434 66.0781 70.1152 65.7812 70.459C65.4883 70.8027 65.3418 71.2324 65.3418 71.748ZM75.6895 75H74.3711V74.0625H74.3477C73.9336 74.7812 73.3262 75.1406 72.5254 75.1406C71.9355 75.1406 71.4727 74.9805 71.1367 74.6602C70.8047 74.3398 70.6387 73.916 70.6387 73.3887C70.6387 72.2559 71.291 71.5957 72.5957 71.4082L74.377 71.1562C74.377 70.3008 73.9707 69.873 73.1582 69.873C72.4434 69.873 71.7988 70.1191 71.2246 70.6113V69.4219C71.8574 69.0469 72.5879 68.8594 73.416 68.8594C74.9316 68.8594 75.6895 69.6055 75.6895 71.0977V75ZM74.377 72.0527L73.1172 72.2285C72.7266 72.2793 72.4316 72.375 72.2324 72.5156C72.0371 72.6523 71.9395 72.8945 71.9395 73.2422C71.9395 73.4961 72.0293 73.7051 72.209 73.8691C72.3926 74.0293 72.6367 74.1094 72.9414 74.1094C73.3555 74.1094 73.6973 73.9648 73.9668 73.6758C74.2402 73.3828 74.377 73.0156 74.377 72.5742V72.0527ZM80.834 70.2949C80.6699 70.166 80.4336 70.1016 80.125 70.1016C79.7227 70.1016 79.3867 70.2832 79.1172 70.6465C78.8477 71.0098 78.7129 71.5039 78.7129 72.1289V75H77.3535V69H78.7129V70.2363H78.7363C78.8691 69.8145 79.0723 69.4863 79.3457 69.252C79.623 69.0137 79.9316 68.8945 80.2715 68.8945C80.5176 68.8945 80.7051 68.9316 80.834 69.0059V70.2949ZM86.4004 75H85.082V74.0625H85.0586C84.6445 74.7812 84.0371 75.1406 83.2363 75.1406C82.6465 75.1406 82.1836 74.9805 81.8477 74.6602C81.5156 74.3398 81.3496 73.916 81.3496 73.3887C81.3496 72.2559 82.002 71.5957 83.3066 71.4082L85.0879 71.1562C85.0879 70.3008 84.6816 69.873 83.8691 69.873C83.1543 69.873 82.5098 70.1191 81.9355 70.6113V69.4219C82.5684 69.0469 83.2988 68.8594 84.127 68.8594C85.6426 68.8594 86.4004 69.6055 86.4004 71.0977V75ZM85.0879 72.0527L83.8281 72.2285C83.4375 72.2793 83.1426 72.375 82.9434 72.5156C82.748 72.6523 82.6504 72.8945 82.6504 73.2422C82.6504 73.4961 82.7402 73.7051 82.9199 73.8691C83.1035 74.0293 83.3477 74.1094 83.6523 74.1094C84.0664 74.1094 84.4082 73.9648 84.6777 73.6758C84.9512 73.3828 85.0879 73.0156 85.0879 72.5742V72.0527ZM94.0293 75.1406C93.1035 75.1406 92.3633 74.8613 91.8086 74.3027C91.2578 73.7402 90.9824 72.9961 90.9824 72.0703C90.9824 71.0625 91.2695 70.2754 91.8438 69.709C92.4219 69.1426 93.1992 68.8594 94.1758 68.8594C95.1133 68.8594 95.8438 69.1348 96.3672 69.6855C96.8906 70.2363 97.1523 71 97.1523 71.9766C97.1523 72.9336 96.8691 73.7012 96.3027 74.2793C95.7402 74.8535 94.9824 75.1406 94.0293 75.1406ZM94.0938 69.9434C93.5625 69.9434 93.1426 70.1289 92.834 70.5C92.5254 70.8711 92.3711 71.3828 92.3711 72.0352C92.3711 72.6641 92.5273 73.1602 92.8398 73.5234C93.1523 73.8828 93.5703 74.0625 94.0938 74.0625C94.6289 74.0625 95.0391 73.8848 95.3242 73.5293C95.6133 73.1738 95.7578 72.668 95.7578 72.0117C95.7578 71.3516 95.6133 70.8418 95.3242 70.4824C95.0391 70.123 94.6289 69.9434 94.0938 69.9434ZM102.021 70.2949C101.857 70.166 101.621 70.1016 101.312 70.1016C100.91 70.1016 100.574 70.2832 100.305 70.6465C100.035 71.0098 99.9004 71.5039 99.9004 72.1289V75H98.541V69H99.9004V70.2363H99.9238C100.057 69.8145 100.26 69.4863 100.533 69.252C100.811 69.0137 101.119 68.8945 101.459 68.8945C101.705 68.8945 101.893 68.9316 102.021 69.0059V70.2949ZM108.338 74.5195C108.338 76.7227 107.23 77.8242 105.016 77.8242C104.234 77.8242 103.553 77.6934 102.971 77.4316V76.1895C103.627 76.5645 104.25 76.752 104.84 76.752C106.266 76.752 106.979 76.0508 106.979 74.6484V73.9922H106.955C106.506 74.7578 105.83 75.1406 104.928 75.1406C104.197 75.1406 103.607 74.875 103.158 74.3438C102.713 73.8086 102.49 73.0918 102.49 72.1934C102.49 71.1738 102.73 70.3633 103.211 69.7617C103.691 69.1602 104.352 68.8594 105.191 68.8594C105.984 68.8594 106.572 69.1836 106.955 69.832H106.979V69H108.338V74.5195ZM106.99 72.252V71.4727C106.99 71.0508 106.85 70.6914 106.568 70.3945C106.291 70.0938 105.943 69.9434 105.525 69.9434C105.01 69.9434 104.605 70.1348 104.312 70.5176C104.023 70.8965 103.879 71.4277 103.879 72.1113C103.879 72.7012 104.018 73.1738 104.295 73.5293C104.576 73.8809 104.947 74.0566 105.408 74.0566C105.877 74.0566 106.258 73.8887 106.551 73.5527C106.844 73.2129 106.99 72.7793 106.99 72.252ZM114.713 75H113.395V74.0625H113.371C112.957 74.7812 112.35 75.1406 111.549 75.1406C110.959 75.1406 110.496 74.9805 110.16 74.6602C109.828 74.3398 109.662 73.916 109.662 73.3887C109.662 72.2559 110.314 71.5957 111.619 71.4082L113.4 71.1562C113.4 70.3008 112.994 69.873 112.182 69.873C111.467 69.873 110.822 70.1191 110.248 70.6113V69.4219C110.881 69.0469 111.611 68.8594 112.439 68.8594C113.955 68.8594 114.713 69.6055 114.713 71.0977V75ZM113.4 72.0527L112.141 72.2285C111.75 72.2793 111.455 72.375 111.256 72.5156C111.061 72.6523 110.963 72.8945 110.963 73.2422C110.963 73.4961 111.053 73.7051 111.232 73.8691C111.416 74.0293 111.66 74.1094 111.965 74.1094C112.379 74.1094 112.721 73.9648 112.99 73.6758C113.264 73.3828 113.4 73.0156 113.4 72.5742V72.0527ZM121.721 75H120.361V71.6191C120.361 70.498 119.965 69.9375 119.172 69.9375C118.758 69.9375 118.416 70.0938 118.146 70.4062C117.877 70.7148 117.742 71.1055 117.742 71.5781V75H116.377V69H117.742V69.9961H117.766C118.215 69.2383 118.863 68.8594 119.711 68.8594C120.363 68.8594 120.861 69.0723 121.205 69.498C121.549 69.9199 121.721 70.5312 121.721 71.332V75ZM124.07 67.7402C123.848 67.7402 123.656 67.668 123.496 67.5234C123.34 67.3789 123.262 67.1953 123.262 66.9727C123.262 66.75 123.34 66.5645 123.496 66.416C123.656 66.2676 123.848 66.1934 124.07 66.1934C124.301 66.1934 124.496 66.2676 124.656 66.416C124.816 66.5645 124.896 66.75 124.896 66.9727C124.896 67.1836 124.816 67.3652 124.656 67.5176C124.496 67.666 124.301 67.7402 124.07 67.7402ZM124.744 75H123.385V69H124.744V75ZM130.955 69.5684L127.715 73.9395H130.943V75H125.811V74.4902L129.121 70.0605H126.127V69H130.955V69.5684ZM136.709 75H135.391V74.0625H135.367C134.953 74.7812 134.346 75.1406 133.545 75.1406C132.955 75.1406 132.492 74.9805 132.156 74.6602C131.824 74.3398 131.658 73.916 131.658 73.3887C131.658 72.2559 132.311 71.5957 133.615 71.4082L135.396 71.1562C135.396 70.3008 134.99 69.873 134.178 69.873C133.463 69.873 132.818 70.1191 132.244 70.6113V69.4219C132.877 69.0469 133.607 68.8594 134.436 68.8594C135.951 68.8594 136.709 69.6055 136.709 71.0977V75ZM135.396 72.0527L134.137 72.2285C133.746 72.2793 133.451 72.375 133.252 72.5156C133.057 72.6523 132.959 72.8945 132.959 73.2422C132.959 73.4961 133.049 73.7051 133.229 73.8691C133.412 74.0293 133.656 74.1094 133.961 74.1094C134.375 74.1094 134.717 73.9648 134.986 73.6758C135.26 73.3828 135.396 73.0156 135.396 72.5742V72.0527ZM142.668 74.7246C142.188 75.002 141.619 75.1406 140.963 75.1406C140.072 75.1406 139.354 74.8633 138.807 74.3086C138.26 73.75 137.986 73.0273 137.986 72.1406C137.986 71.1523 138.279 70.3594 138.865 69.7617C139.455 69.1602 140.242 68.8594 141.227 68.8594C141.773 68.8594 142.256 68.9551 142.674 69.1465V70.4121C142.256 70.0996 141.811 69.9434 141.338 69.9434C140.764 69.9434 140.293 70.1387 139.926 70.5293C139.559 70.916 139.375 71.4238 139.375 72.0527C139.375 72.6738 139.547 73.1641 139.891 73.5234C140.238 73.8828 140.703 74.0625 141.285 74.0625C141.773 74.0625 142.234 73.8887 142.668 73.541V74.7246ZM142.182 76.4531C142.182 77.2109 141.619 77.5898 140.494 77.5898C140.311 77.5898 140.152 77.584 140.02 77.5723V76.9219C140.191 76.9453 140.33 76.957 140.436 76.957C140.955 76.957 141.215 76.7969 141.215 76.4766C141.215 76.1875 140.979 76.043 140.506 76.043C140.467 76.043 140.391 76.0508 140.277 76.0664V75H141.074V75.5508C141.414 75.5508 141.684 75.6289 141.883 75.7852C142.082 75.9453 142.182 76.168 142.182 76.4531ZM148.627 75H147.309V74.0625H147.285C146.871 74.7812 146.264 75.1406 145.463 75.1406C144.873 75.1406 144.41 74.9805 144.074 74.6602C143.742 74.3398 143.576 73.916 143.576 73.3887C143.576 72.2559 144.229 71.5957 145.533 71.4082L147.314 71.1562C147.314 70.3008 146.908 69.873 146.096 69.873C145.381 69.873 144.736 70.1191 144.162 70.6113V69.4219C144.795 69.0469 145.525 68.8594 146.354 68.8594C147.869 68.8594 148.627 69.6055 148.627 71.0977V75ZM147.314 72.0527L146.055 72.2285C145.664 72.2793 145.369 72.375 145.17 72.5156C144.975 72.6523 144.877 72.8945 144.877 73.2422C144.877 73.4961 144.967 73.7051 145.146 73.8691C145.33 74.0293 145.574 74.1094 145.879 74.1094C146.293 74.1094 146.635 73.9648 146.904 73.6758C147.178 73.3828 147.314 73.0156 147.314 72.5742V72.0527ZM148.246 66.3574C148.246 66.8105 148.145 67.1816 147.941 67.4707C147.742 67.7559 147.471 67.8984 147.127 67.8984C146.846 67.8984 146.523 67.8047 146.16 67.6172C145.855 67.4414 145.619 67.3535 145.451 67.3535C145.123 67.3535 144.959 67.5703 144.959 68.0039H144.285C144.285 67.5391 144.385 67.168 144.584 66.8906C144.783 66.6094 145.062 66.4688 145.422 66.4688C145.688 66.4688 145.994 66.5684 146.342 66.7676C146.623 66.9395 146.867 67.0254 147.074 67.0254C147.391 67.0254 147.549 66.8027 147.549 66.3574H148.246ZM152.951 75.1406C152.025 75.1406 151.285 74.8613 150.73 74.3027C150.18 73.7402 149.904 72.9961 149.904 72.0703C149.904 71.0625 150.191 70.2754 150.766 69.709C151.344 69.1426 152.121 68.8594 153.098 68.8594C154.035 68.8594 154.766 69.1348 155.289 69.6855C155.812 70.2363 156.074 71 156.074 71.9766C156.074 72.9336 155.791 73.7012 155.225 74.2793C154.662 74.8535 153.904 75.1406 152.951 75.1406ZM153.016 69.9434C152.484 69.9434 152.064 70.1289 151.756 70.5C151.447 70.8711 151.293 71.3828 151.293 72.0352C151.293 72.6641 151.449 73.1602 151.762 73.5234C152.074 73.8828 152.492 74.0625 153.016 74.0625C153.551 74.0625 153.961 73.8848 154.246 73.5293C154.535 73.1738 154.68 72.668 154.68 72.0117C154.68 71.3516 154.535 70.8418 154.246 70.4824C153.961 70.123 153.551 69.9434 153.016 69.9434ZM166.223 75H164.863V73.9805H164.84C164.402 74.7539 163.729 75.1406 162.818 75.1406C162.08 75.1406 161.488 74.873 161.043 74.3379C160.602 73.7988 160.381 73.0664 160.381 72.1406C160.381 71.1484 160.625 70.3535 161.113 69.7559C161.605 69.1582 162.26 68.8594 163.076 68.8594C163.885 68.8594 164.473 69.1836 164.84 69.832H164.863V66.1172H166.223V75ZM164.881 72.2578V71.4727C164.881 71.0469 164.742 70.6855 164.465 70.3887C164.188 70.0918 163.834 69.9434 163.404 69.9434C162.896 69.9434 162.496 70.1328 162.203 70.5117C161.914 70.8906 161.77 71.416 161.77 72.0879C161.77 72.6973 161.908 73.1797 162.186 73.5352C162.467 73.8867 162.844 74.0625 163.316 74.0625C163.781 74.0625 164.158 73.8926 164.447 73.5527C164.736 73.209 164.881 72.7773 164.881 72.2578ZM173.078 72.3691H168.988C169.004 72.9238 169.174 73.3516 169.498 73.6523C169.826 73.9531 170.275 74.1035 170.846 74.1035C171.486 74.1035 172.074 73.9121 172.609 73.5293V74.625C172.062 74.9688 171.34 75.1406 170.441 75.1406C169.559 75.1406 168.865 74.8691 168.361 74.3262C167.861 73.7793 167.611 73.0117 167.611 72.0234C167.611 71.0898 167.887 70.3301 168.438 69.7441C168.992 69.1543 169.68 68.8594 170.5 68.8594C171.32 68.8594 171.955 69.123 172.404 69.6504C172.854 70.1777 173.078 70.9102 173.078 71.8477V72.3691ZM171.766 71.4082C171.762 70.9199 171.646 70.541 171.42 70.2715C171.193 69.998 170.881 69.8613 170.482 69.8613C170.092 69.8613 169.76 70.0039 169.486 70.2891C169.217 70.5742 169.051 70.9473 168.988 71.4082H171.766ZM180.842 74.9355C180.576 75.0684 180.227 75.1348 179.793 75.1348C178.629 75.1348 178.047 74.5762 178.047 73.459V70.0664H177.045V69H178.047V67.6113L179.406 67.2246V69H180.842V70.0664H179.406V73.0664C179.406 73.4219 179.471 73.6758 179.6 73.8281C179.729 73.9805 179.943 74.0566 180.244 74.0566C180.475 74.0566 180.674 73.9902 180.842 73.8574V74.9355ZM186.619 75H185.301V74.0625H185.277C184.863 74.7812 184.256 75.1406 183.455 75.1406C182.865 75.1406 182.402 74.9805 182.066 74.6602C181.734 74.3398 181.568 73.916 181.568 73.3887C181.568 72.2559 182.221 71.5957 183.525 71.4082L185.307 71.1562C185.307 70.3008 184.9 69.873 184.088 69.873C183.373 69.873 182.729 70.1191 182.154 70.6113V69.4219C182.787 69.0469 183.518 68.8594 184.346 68.8594C185.861 68.8594 186.619 69.6055 186.619 71.0977V75ZM185.307 72.0527L184.047 72.2285C183.656 72.2793 183.361 72.375 183.162 72.5156C182.967 72.6523 182.869 72.8945 182.869 73.2422C182.869 73.4961 182.959 73.7051 183.139 73.8691C183.322 74.0293 183.566 74.1094 183.871 74.1094C184.285 74.1094 184.627 73.9648 184.896 73.6758C185.17 73.3828 185.307 73.0156 185.307 72.5742V72.0527ZM191.764 70.2949C191.6 70.166 191.363 70.1016 191.055 70.1016C190.652 70.1016 190.316 70.2832 190.047 70.6465C189.777 71.0098 189.643 71.5039 189.643 72.1289V75H188.283V69H189.643V70.2363H189.666C189.799 69.8145 190.002 69.4863 190.275 69.252C190.553 69.0137 190.861 68.8945 191.201 68.8945C191.447 68.8945 191.635 68.9316 191.764 69.0059V70.2949ZM197.699 72.3691H193.609C193.625 72.9238 193.795 73.3516 194.119 73.6523C194.447 73.9531 194.896 74.1035 195.467 74.1035C196.107 74.1035 196.695 73.9121 197.23 73.5293V74.625C196.684 74.9688 195.961 75.1406 195.062 75.1406C194.18 75.1406 193.486 74.8691 192.982 74.3262C192.482 73.7793 192.232 73.0117 192.232 72.0234C192.232 71.0898 192.508 70.3301 193.059 69.7441C193.613 69.1543 194.301 68.8594 195.121 68.8594C195.941 68.8594 196.576 69.123 197.025 69.6504C197.475 70.1777 197.699 70.9102 197.699 71.8477V72.3691ZM196.387 71.4082C196.383 70.9199 196.268 70.541 196.041 70.2715C195.814 69.998 195.502 69.8613 195.104 69.8613C194.713 69.8613 194.381 70.0039 194.107 70.2891C193.838 70.5742 193.672 70.9473 193.609 71.4082H196.387ZM202.387 67.2246C202.203 67.1191 201.994 67.0664 201.76 67.0664C201.1 67.0664 200.77 67.4395 200.77 68.1855V69H202.164V70.0664H200.775V75H199.416V70.0664H198.391V69H199.416V68.0273C199.416 67.3945 199.623 66.8965 200.037 66.5332C200.451 66.166 200.969 65.9824 201.59 65.9824C201.926 65.9824 202.191 66.0195 202.387 66.0938V67.2246ZM207.736 75H206.418V74.0625H206.395C205.98 74.7812 205.373 75.1406 204.572 75.1406C203.982 75.1406 203.52 74.9805 203.184 74.6602C202.852 74.3398 202.686 73.916 202.686 73.3887C202.686 72.2559 203.338 71.5957 204.643 71.4082L206.424 71.1562C206.424 70.3008 206.018 69.873 205.205 69.873C204.49 69.873 203.846 70.1191 203.271 70.6113V69.4219C203.904 69.0469 204.635 68.8594 205.463 68.8594C206.979 68.8594 207.736 69.6055 207.736 71.0977V75ZM206.424 72.0527L205.164 72.2285C204.773 72.2793 204.479 72.375 204.279 72.5156C204.084 72.6523 203.986 72.8945 203.986 73.2422C203.986 73.4961 204.076 73.7051 204.256 73.8691C204.439 74.0293 204.684 74.1094 204.988 74.1094C205.402 74.1094 205.744 73.9648 206.014 73.6758C206.287 73.3828 206.424 73.0156 206.424 72.5742V72.0527ZM209.025 74.8125V73.5527C209.533 73.9395 210.094 74.1328 210.707 74.1328C211.527 74.1328 211.938 73.8906 211.938 73.4062C211.938 73.2695 211.902 73.1543 211.832 73.0605C211.762 72.9629 211.666 72.877 211.545 72.8027C211.428 72.7285 211.287 72.6621 211.123 72.6035C210.963 72.5449 210.783 72.4785 210.584 72.4043C210.338 72.3066 210.115 72.2031 209.916 72.0938C209.721 71.9844 209.557 71.8613 209.424 71.7246C209.295 71.584 209.197 71.4258 209.131 71.25C209.064 71.0742 209.031 70.8691 209.031 70.6348C209.031 70.3457 209.1 70.0918 209.236 69.873C209.373 69.6504 209.557 69.4648 209.787 69.3164C210.018 69.1641 210.279 69.0508 210.572 68.9766C210.865 68.8984 211.168 68.8594 211.48 68.8594C212.035 68.8594 212.531 68.9434 212.969 69.1113V70.3008C212.547 70.0117 212.062 69.8672 211.516 69.8672C211.344 69.8672 211.188 69.8848 211.047 69.9199C210.91 69.9551 210.793 70.0039 210.695 70.0664C210.598 70.1289 210.521 70.2051 210.467 70.2949C210.412 70.3809 210.385 70.4766 210.385 70.582C210.385 70.7109 210.412 70.8203 210.467 70.9102C210.521 71 210.602 71.0801 210.707 71.1504C210.816 71.2168 210.945 71.2793 211.094 71.3379C211.246 71.3926 211.42 71.4531 211.615 71.5195C211.873 71.625 212.104 71.7324 212.307 71.8418C212.514 71.9512 212.689 72.0762 212.834 72.2168C212.979 72.3535 213.09 72.5137 213.168 72.6973C213.246 72.877 213.285 73.0918 213.285 73.3418C213.285 73.6465 213.215 73.9121 213.074 74.1387C212.934 74.3652 212.746 74.5527 212.512 74.7012C212.277 74.8496 212.006 74.959 211.697 75.0293C211.393 75.1035 211.07 75.1406 210.73 75.1406C210.074 75.1406 209.506 75.0312 209.025 74.8125ZM223.34 75H221.98V73.9805H221.957C221.52 74.7539 220.846 75.1406 219.936 75.1406C219.197 75.1406 218.605 74.873 218.16 74.3379C217.719 73.7988 217.498 73.0664 217.498 72.1406C217.498 71.1484 217.742 70.3535 218.23 69.7559C218.723 69.1582 219.377 68.8594 220.193 68.8594C221.002 68.8594 221.59 69.1836 221.957 69.832H221.98V66.1172H223.34V75ZM221.998 72.2578V71.4727C221.998 71.0469 221.859 70.6855 221.582 70.3887C221.305 70.0918 220.951 69.9434 220.521 69.9434C220.014 69.9434 219.613 70.1328 219.32 70.5117C219.031 70.8906 218.887 71.416 218.887 72.0879C218.887 72.6973 219.025 73.1797 219.303 73.5352C219.584 73.8867 219.961 74.0625 220.434 74.0625C220.898 74.0625 221.275 73.8926 221.564 73.5527C221.854 73.209 221.998 72.7773 221.998 72.2578ZM230.195 72.3691H226.105C226.121 72.9238 226.291 73.3516 226.615 73.6523C226.943 73.9531 227.393 74.1035 227.963 74.1035C228.604 74.1035 229.191 73.9121 229.727 73.5293V74.625C229.18 74.9688 228.457 75.1406 227.559 75.1406C226.676 75.1406 225.982 74.8691 225.479 74.3262C224.979 73.7793 224.729 73.0117 224.729 72.0234C224.729 71.0898 225.004 70.3301 225.555 69.7441C226.109 69.1543 226.797 68.8594 227.617 68.8594C228.438 68.8594 229.072 69.123 229.521 69.6504C229.971 70.1777 230.195 70.9102 230.195 71.8477V72.3691ZM228.883 71.4082C228.879 70.9199 228.764 70.541 228.537 70.2715C228.311 69.998 227.998 69.8613 227.6 69.8613C227.209 69.8613 226.877 70.0039 226.604 70.2891C226.334 70.5742 226.168 70.9473 226.105 71.4082H228.883ZM243.766 75H242.406V71.7305C242.406 71.1016 242.316 70.6465 242.137 70.3652C241.961 70.084 241.662 69.9434 241.24 69.9434C240.885 69.9434 240.582 70.1211 240.332 70.4766C240.086 70.832 239.963 71.2578 239.963 71.7539V75H238.598V71.6191C238.598 70.502 238.203 69.9434 237.414 69.9434C237.047 69.9434 236.744 70.1113 236.506 70.4473C236.271 70.7832 236.154 71.2188 236.154 71.7539V75H234.795V69H236.154V69.9492H236.178C236.611 69.2227 237.242 68.8594 238.07 68.8594C238.484 68.8594 238.846 68.9746 239.154 69.2051C239.467 69.4316 239.68 69.7305 239.793 70.1016C240.238 69.2734 240.902 68.8594 241.785 68.8594C243.105 68.8594 243.766 69.6738 243.766 71.3027V75ZM250.029 75H248.711V74.0625H248.688C248.273 74.7812 247.666 75.1406 246.865 75.1406C246.275 75.1406 245.812 74.9805 245.477 74.6602C245.145 74.3398 244.979 73.916 244.979 73.3887C244.979 72.2559 245.631 71.5957 246.936 71.4082L248.717 71.1562C248.717 70.3008 248.311 69.873 247.498 69.873C246.783 69.873 246.139 70.1191 245.564 70.6113V69.4219C246.197 69.0469 246.928 68.8594 247.756 68.8594C249.271 68.8594 250.029 69.6055 250.029 71.0977V75ZM248.717 72.0527L247.457 72.2285C247.066 72.2793 246.771 72.375 246.572 72.5156C246.377 72.6523 246.279 72.8945 246.279 73.2422C246.279 73.4961 246.369 73.7051 246.549 73.8691C246.732 74.0293 246.977 74.1094 247.281 74.1094C247.695 74.1094 248.037 73.9648 248.307 73.6758C248.58 73.3828 248.717 73.0156 248.717 72.5742V72.0527ZM257.037 75H255.678V71.6191C255.678 70.498 255.281 69.9375 254.488 69.9375C254.074 69.9375 253.732 70.0938 253.463 70.4062C253.193 70.7148 253.059 71.1055 253.059 71.5781V75H251.693V69H253.059V69.9961H253.082C253.531 69.2383 254.18 68.8594 255.027 68.8594C255.68 68.8594 256.178 69.0723 256.521 69.498C256.865 69.9199 257.037 70.5312 257.037 71.332V75ZM263.781 72.3691H259.691C259.707 72.9238 259.877 73.3516 260.201 73.6523C260.529 73.9531 260.979 74.1035 261.549 74.1035C262.189 74.1035 262.777 73.9121 263.312 73.5293V74.625C262.766 74.9688 262.043 75.1406 261.145 75.1406C260.262 75.1406 259.568 74.8691 259.064 74.3262C258.564 73.7793 258.314 73.0117 258.314 72.0234C258.314 71.0898 258.59 70.3301 259.141 69.7441C259.695 69.1543 260.383 68.8594 261.203 68.8594C262.023 68.8594 262.658 69.123 263.107 69.6504C263.557 70.1777 263.781 70.9102 263.781 71.8477V72.3691ZM262.469 71.4082C262.465 70.9199 262.35 70.541 262.123 70.2715C261.896 69.998 261.584 69.8613 261.186 69.8613C260.795 69.8613 260.463 70.0039 260.189 70.2891C259.92 70.5742 259.754 70.9473 259.691 71.4082H262.469ZM265.762 67.7402C265.539 67.7402 265.348 67.668 265.188 67.5234C265.031 67.3789 264.953 67.1953 264.953 66.9727C264.953 66.75 265.031 66.5645 265.188 66.416C265.348 66.2676 265.539 66.1934 265.762 66.1934C265.992 66.1934 266.188 66.2676 266.348 66.416C266.508 66.5645 266.588 66.75 266.588 66.9727C266.588 67.1836 266.508 67.3652 266.348 67.5176C266.188 67.666 265.992 67.7402 265.762 67.7402ZM266.436 75H265.076V69H266.436V75ZM271.697 70.2949C271.533 70.166 271.297 70.1016 270.988 70.1016C270.586 70.1016 270.25 70.2832 269.98 70.6465C269.711 71.0098 269.576 71.5039 269.576 72.1289V75H268.217V69H269.576V70.2363H269.6C269.732 69.8145 269.936 69.4863 270.209 69.252C270.486 69.0137 270.795 68.8945 271.135 68.8945C271.381 68.8945 271.568 68.9316 271.697 69.0059V70.2949ZM277.264 75H275.945V74.0625H275.922C275.508 74.7812 274.9 75.1406 274.1 75.1406C273.51 75.1406 273.047 74.9805 272.711 74.6602C272.379 74.3398 272.213 73.916 272.213 73.3887C272.213 72.2559 272.865 71.5957 274.17 71.4082L275.951 71.1562C275.951 70.3008 275.545 69.873 274.732 69.873C274.018 69.873 273.373 70.1191 272.799 70.6113V69.4219C273.432 69.0469 274.162 68.8594 274.99 68.8594C276.506 68.8594 277.264 69.6055 277.264 71.0977V75ZM275.951 72.0527L274.691 72.2285C274.301 72.2793 274.006 72.375 273.807 72.5156C273.611 72.6523 273.514 72.8945 273.514 73.2422C273.514 73.4961 273.604 73.7051 273.783 73.8691C273.967 74.0293 274.211 74.1094 274.516 74.1094C274.93 74.1094 275.271 73.9648 275.541 73.6758C275.814 73.3828 275.951 73.0156 275.951 72.5742V72.0527ZM285.625 67.2246C285.441 67.1191 285.232 67.0664 284.998 67.0664C284.338 67.0664 284.008 67.4395 284.008 68.1855V69H285.402V70.0664H284.014V75H282.654V70.0664H281.629V69H282.654V68.0273C282.654 67.3945 282.861 66.8965 283.275 66.5332C283.689 66.166 284.207 65.9824 284.828 65.9824C285.164 65.9824 285.43 66.0195 285.625 66.0938V67.2246ZM290.975 75H289.656V74.0625H289.633C289.219 74.7812 288.611 75.1406 287.811 75.1406C287.221 75.1406 286.758 74.9805 286.422 74.6602C286.09 74.3398 285.924 73.916 285.924 73.3887C285.924 72.2559 286.576 71.5957 287.881 71.4082L289.662 71.1562C289.662 70.3008 289.256 69.873 288.443 69.873C287.729 69.873 287.084 70.1191 286.51 70.6113V69.4219C287.143 69.0469 287.873 68.8594 288.701 68.8594C290.217 68.8594 290.975 69.6055 290.975 71.0977V75ZM289.662 72.0527L288.402 72.2285C288.012 72.2793 287.717 72.375 287.518 72.5156C287.322 72.6523 287.225 72.8945 287.225 73.2422C287.225 73.4961 287.314 73.7051 287.494 73.8691C287.678 74.0293 287.922 74.1094 288.227 74.1094C288.641 74.1094 288.982 73.9648 289.252 73.6758C289.525 73.3828 289.662 73.0156 289.662 72.5742V72.0527ZM290.336 65.9414L288.66 67.8633H287.652L289.07 65.9414H290.336ZM296.934 74.7246C296.453 75.002 295.885 75.1406 295.229 75.1406C294.338 75.1406 293.619 74.8633 293.072 74.3086C292.525 73.75 292.252 73.0273 292.252 72.1406C292.252 71.1523 292.545 70.3594 293.131 69.7617C293.721 69.1602 294.508 68.8594 295.492 68.8594C296.039 68.8594 296.521 68.9551 296.939 69.1465V70.4121C296.521 70.0996 296.076 69.9434 295.604 69.9434C295.029 69.9434 294.559 70.1387 294.191 70.5293C293.824 70.916 293.641 71.4238 293.641 72.0527C293.641 72.6738 293.812 73.1641 294.156 73.5234C294.504 73.8828 294.969 74.0625 295.551 74.0625C296.039 74.0625 296.5 73.8887 296.934 73.541V74.7246ZM298.973 67.7402C298.75 67.7402 298.559 67.668 298.398 67.5234C298.242 67.3789 298.164 67.1953 298.164 66.9727C298.164 66.75 298.242 66.5645 298.398 66.416C298.559 66.2676 298.75 66.1934 298.973 66.1934C299.203 66.1934 299.398 66.2676 299.559 66.416C299.719 66.5645 299.799 66.75 299.799 66.9727C299.799 67.1836 299.719 67.3652 299.559 67.5176C299.398 67.666 299.203 67.7402 298.973 67.7402ZM299.646 75H298.287V69H299.646V75ZM302.793 75H301.428V66.1172H302.793V75ZM312.953 72.3691H308.863C308.879 72.9238 309.049 73.3516 309.373 73.6523C309.701 73.9531 310.15 74.1035 310.721 74.1035C311.361 74.1035 311.949 73.9121 312.484 73.5293V74.625C311.938 74.9688 311.215 75.1406 310.316 75.1406C309.434 75.1406 308.74 74.8691 308.236 74.3262C307.736 73.7793 307.486 73.0117 307.486 72.0234C307.486 71.0898 307.762 70.3301 308.312 69.7441C308.867 69.1543 309.555 68.8594 310.375 68.8594C311.195 68.8594 311.83 69.123 312.279 69.6504C312.729 70.1777 312.953 70.9102 312.953 71.8477V72.3691ZM311.641 71.4082C311.637 70.9199 311.521 70.541 311.295 70.2715C311.068 69.998 310.756 69.8613 310.357 69.8613C309.967 69.8613 309.635 70.0039 309.361 70.2891C309.092 70.5742 308.926 70.9473 308.863 71.4082H311.641ZM20.3652 86.2949C20.2012 86.166 19.9648 86.1016 19.6562 86.1016C19.2539 86.1016 18.918 86.2832 18.6484 86.6465C18.3789 87.0098 18.2441 87.5039 18.2441 88.1289V91H16.8848V85H18.2441V86.2363H18.2676C18.4004 85.8145 18.6035 85.4863 18.877 85.252C19.1543 85.0137 19.4629 84.8945 19.8027 84.8945C20.0488 84.8945 20.2363 84.9316 20.3652 85.0059V86.2949ZM25.9316 91H24.6133V90.0625H24.5898C24.1758 90.7812 23.5684 91.1406 22.7676 91.1406C22.1777 91.1406 21.7148 90.9805 21.3789 90.6602C21.0469 90.3398 20.8809 89.916 20.8809 89.3887C20.8809 88.2559 21.5332 87.5957 22.8379 87.4082L24.6191 87.1562C24.6191 86.3008 24.2129 85.873 23.4004 85.873C22.6855 85.873 22.041 86.1191 21.4668 86.6113V85.4219C22.0996 85.0469 22.8301 84.8594 23.6582 84.8594C25.1738 84.8594 25.9316 85.6055 25.9316 87.0977V91ZM24.6191 88.0527L23.3594 88.2285C22.9688 88.2793 22.6738 88.375 22.4746 88.5156C22.2793 88.6523 22.1816 88.8945 22.1816 89.2422C22.1816 89.4961 22.2715 89.7051 22.4512 89.8691C22.6348 90.0293 22.8789 90.1094 23.1836 90.1094C23.5977 90.1094 23.9395 89.9648 24.209 89.6758C24.4824 89.3828 24.6191 89.0156 24.6191 88.5742V88.0527ZM25.293 81.9414L23.6172 83.8633H22.6094L24.0273 81.9414H25.293ZM28.9785 90.1152H28.9551V93.7598H27.5957V85H28.9551V86.0547H28.9785C29.4434 85.2578 30.123 84.8594 31.0176 84.8594C31.7793 84.8594 32.373 85.127 32.7988 85.6621C33.2246 86.1973 33.4375 86.916 33.4375 87.8184C33.4375 88.8184 33.1973 89.6191 32.7168 90.2207C32.2363 90.8223 31.5801 91.123 30.748 91.123C29.9824 91.123 29.3926 90.7871 28.9785 90.1152ZM28.9434 87.748V88.4922C28.9434 88.9297 29.082 89.3008 29.3594 89.6055C29.6406 89.9102 29.9961 90.0625 30.4258 90.0625C30.9297 90.0625 31.3242 89.8672 31.6094 89.4766C31.8984 89.082 32.043 88.5332 32.043 87.8301C32.043 87.2402 31.9082 86.7793 31.6387 86.4473C31.373 86.1113 31.0117 85.9434 30.5547 85.9434C30.0703 85.9434 29.6797 86.1152 29.3828 86.459C29.0898 86.8027 28.9434 87.2324 28.9434 87.748ZM35.5117 83.7402C35.2891 83.7402 35.0977 83.668 34.9375 83.5234C34.7812 83.3789 34.7031 83.1953 34.7031 82.9727C34.7031 82.75 34.7812 82.5645 34.9375 82.416C35.0977 82.2676 35.2891 82.1934 35.5117 82.1934C35.7422 82.1934 35.9375 82.2676 36.0977 82.416C36.2578 82.5645 36.3379 82.75 36.3379 82.9727C36.3379 83.1836 36.2578 83.3652 36.0977 83.5176C35.9375 83.666 35.7422 83.7402 35.5117 83.7402ZM36.1855 91H34.8262V85H36.1855V91ZM43.4219 91H42.0625V89.9805H42.0391C41.6016 90.7539 40.9277 91.1406 40.0176 91.1406C39.2793 91.1406 38.6875 90.873 38.2422 90.3379C37.8008 89.7988 37.5801 89.0664 37.5801 88.1406C37.5801 87.1484 37.8242 86.3535 38.3125 85.7559C38.8047 85.1582 39.459 84.8594 40.2754 84.8594C41.084 84.8594 41.6719 85.1836 42.0391 85.832H42.0625V82.1172H43.4219V91ZM42.0801 88.2578V87.4727C42.0801 87.0469 41.9414 86.6855 41.6641 86.3887C41.3867 86.0918 41.0332 85.9434 40.6035 85.9434C40.0957 85.9434 39.6953 86.1328 39.4023 86.5117C39.1133 86.8906 38.9688 87.416 38.9688 88.0879C38.9688 88.6973 39.1074 89.1797 39.3848 89.5352C39.666 89.8867 40.043 90.0625 40.5156 90.0625C40.9805 90.0625 41.3574 89.8926 41.6465 89.5527C41.9355 89.209 42.0801 88.7773 42.0801 88.2578ZM49.8027 91H48.4844V90.0625H48.4609C48.0469 90.7812 47.4395 91.1406 46.6387 91.1406C46.0488 91.1406 45.5859 90.9805 45.25 90.6602C44.918 90.3398 44.752 89.916 44.752 89.3887C44.752 88.2559 45.4043 87.5957 46.709 87.4082L48.4902 87.1562C48.4902 86.3008 48.084 85.873 47.2715 85.873C46.5566 85.873 45.9121 86.1191 45.3379 86.6113V85.4219C45.9707 85.0469 46.7012 84.8594 47.5293 84.8594C49.0449 84.8594 49.8027 85.6055 49.8027 87.0977V91ZM48.4902 88.0527L47.2305 88.2285C46.8398 88.2793 46.5449 88.375 46.3457 88.5156C46.1504 88.6523 46.0527 88.8945 46.0527 89.2422C46.0527 89.4961 46.1426 89.7051 46.3223 89.8691C46.5059 90.0293 46.75 90.1094 47.0547 90.1094C47.4688 90.1094 47.8105 89.9648 48.0801 89.6758C48.3535 89.3828 48.4902 89.0156 48.4902 88.5742V88.0527ZM52.0293 91.1289C51.7949 91.1289 51.5957 91.0527 51.4316 90.9004C51.2676 90.7441 51.1855 90.5586 51.1855 90.3438C51.1855 90.125 51.2676 89.9375 51.4316 89.7812C51.5957 89.625 51.7949 89.5469 52.0293 89.5469C52.2676 89.5469 52.4688 89.625 52.6328 89.7812C52.8008 89.9375 52.8848 90.125 52.8848 90.3438C52.8848 90.5586 52.8008 90.7441 52.6328 90.9004C52.4688 91.0527 52.2676 91.1289 52.0293 91.1289Z" fill="#1A1B1C" fill-opacity="0.8"/>
<circle cx="22" cy="108" r="6" fill="#F1E05A"/>
<path d="M33.252 109.988C33.252 110.984 33.041 111.76 32.6191 112.314C32.1973 112.865 31.6328 113.141 30.9258 113.141C30.5977 113.141 30.3281 113.094 30.1172 113V112.027C30.3281 112.18 30.6016 112.256 30.9375 112.256C31.8242 112.256 32.2676 111.504 32.2676 110V104.598H33.252V109.988ZM39.5566 113H38.5957V112.062H38.5723C38.1543 112.781 37.5391 113.141 36.7266 113.141C36.1289 113.141 35.6602 112.982 35.3203 112.666C34.9844 112.35 34.8164 111.93 34.8164 111.406C34.8164 110.285 35.4766 109.633 36.7969 109.449L38.5957 109.197C38.5957 108.178 38.1836 107.668 37.3594 107.668C36.6367 107.668 35.9844 107.914 35.4023 108.406V107.422C35.9922 107.047 36.6719 106.859 37.4414 106.859C38.8516 106.859 39.5566 107.605 39.5566 109.098V113ZM38.5957 109.965L37.1484 110.164C36.7031 110.227 36.3672 110.338 36.1406 110.498C35.9141 110.654 35.8008 110.934 35.8008 111.336C35.8008 111.629 35.9043 111.869 36.1113 112.057C36.3223 112.24 36.6016 112.332 36.9492 112.332C37.4258 112.332 37.8184 112.166 38.127 111.834C38.4395 111.498 38.5957 111.074 38.5957 110.562V109.965ZM46.084 107L43.6934 113H42.75L40.4766 107H41.5312L43.0547 111.359C43.168 111.68 43.2383 111.959 43.2656 112.197H43.2891C43.3281 111.896 43.3906 111.625 43.4766 111.383L45.0703 107H46.084ZM51.416 113H50.4551V112.062H50.4316C50.0137 112.781 49.3984 113.141 48.5859 113.141C47.9883 113.141 47.5195 112.982 47.1797 112.666C46.8438 112.35 46.6758 111.93 46.6758 111.406C46.6758 110.285 47.3359 109.633 48.6562 109.449L50.4551 109.197C50.4551 108.178 50.043 107.668 49.2188 107.668C48.4961 107.668 47.8438 107.914 47.2617 108.406V107.422C47.8516 107.047 48.5312 106.859 49.3008 106.859C50.7109 106.859 51.416 107.605 51.416 109.098V113ZM50.4551 109.965L49.0078 110.164C48.5625 110.227 48.2266 110.338 48 110.498C47.7734 110.654 47.6602 110.934 47.6602 111.336C47.6602 111.629 47.7637 111.869 47.9707 112.057C48.1816 112.24 48.4609 112.332 48.8086 112.332C49.2852 112.332 49.6777 112.166 49.9863 111.834C50.2988 111.498 50.4551 111.074 50.4551 110.562V109.965ZM52.9629 112.66V111.5C53.0957 111.617 53.2539 111.723 53.4375 111.816C53.625 111.91 53.8203 111.99 54.0234 112.057C54.2305 112.119 54.4375 112.168 54.6445 112.203C54.8516 112.238 55.043 112.256 55.2188 112.256C55.8242 112.256 56.2754 112.145 56.5723 111.922C56.873 111.695 57.0234 111.371 57.0234 110.949C57.0234 110.723 56.9727 110.525 56.8711 110.357C56.7734 110.189 56.6367 110.037 56.4609 109.9C56.2852 109.76 56.0762 109.627 55.834 109.502C55.5957 109.373 55.3379 109.238 55.0605 109.098C54.7676 108.949 54.4941 108.799 54.2402 108.646C53.9863 108.494 53.7656 108.326 53.5781 108.143C53.3906 107.959 53.2422 107.752 53.1328 107.521C53.0273 107.287 52.9746 107.014 52.9746 106.701C52.9746 106.318 53.0586 105.986 53.2266 105.705C53.3945 105.42 53.6152 105.186 53.8887 105.002C54.1621 104.818 54.4727 104.682 54.8203 104.592C55.1719 104.502 55.5293 104.457 55.8926 104.457C56.7207 104.457 57.3242 104.557 57.7031 104.756V105.863C57.207 105.52 56.5703 105.348 55.793 105.348C55.5781 105.348 55.3633 105.371 55.1484 105.418C54.9336 105.461 54.7422 105.533 54.5742 105.635C54.4062 105.736 54.2695 105.867 54.1641 106.027C54.0586 106.188 54.0059 106.383 54.0059 106.613C54.0059 106.828 54.0449 107.014 54.123 107.17C54.2051 107.326 54.3242 107.469 54.4805 107.598C54.6367 107.727 54.8262 107.852 55.0488 107.973C55.2754 108.094 55.5352 108.227 55.8281 108.371C56.1289 108.52 56.4141 108.676 56.6836 108.84C56.9531 109.004 57.1895 109.186 57.3926 109.385C57.5957 109.584 57.7559 109.805 57.873 110.047C57.9941 110.289 58.0547 110.566 58.0547 110.879C58.0547 111.293 57.9727 111.645 57.8086 111.934C57.6484 112.219 57.4297 112.451 57.1523 112.631C56.8789 112.811 56.5625 112.939 56.2031 113.018C55.8438 113.1 55.4648 113.141 55.0664 113.141C54.9336 113.141 54.7695 113.129 54.5742 113.105C54.3789 113.086 54.1797 113.055 53.9766 113.012C53.7734 112.973 53.5801 112.924 53.3965 112.865C53.2168 112.803 53.0723 112.734 52.9629 112.66ZM63.6914 112.725C63.2305 113.002 62.6836 113.141 62.0508 113.141C61.1953 113.141 60.5039 112.863 59.9766 112.309C59.4531 111.75 59.1914 111.027 59.1914 110.141C59.1914 109.152 59.4746 108.359 60.041 107.762C60.6074 107.16 61.3633 106.859 62.3086 106.859C62.8359 106.859 63.3008 106.957 63.7031 107.152V108.137C63.2578 107.824 62.7812 107.668 62.2734 107.668C61.6602 107.668 61.1562 107.889 60.7617 108.33C60.3711 108.768 60.1758 109.344 60.1758 110.059C60.1758 110.762 60.3594 111.316 60.7266 111.723C61.0977 112.129 61.5938 112.332 62.2148 112.332C62.7383 112.332 63.2305 112.158 63.6914 111.811V112.725ZM68.2734 107.973C68.1055 107.844 67.8633 107.779 67.5469 107.779C67.1367 107.779 66.793 107.973 66.5156 108.359C66.2422 108.746 66.1055 109.273 66.1055 109.941V113H65.1445V107H66.1055V108.236H66.1289C66.2656 107.814 66.4746 107.486 66.7559 107.252C67.0371 107.014 67.3516 106.895 67.6992 106.895C67.9492 106.895 68.1406 106.922 68.2734 106.977V107.973ZM69.8086 105.477C69.6367 105.477 69.4902 105.418 69.3691 105.301C69.248 105.184 69.1875 105.035 69.1875 104.855C69.1875 104.676 69.248 104.527 69.3691 104.41C69.4902 104.289 69.6367 104.229 69.8086 104.229C69.9844 104.229 70.1328 104.289 70.2539 104.41C70.3789 104.527 70.4414 104.676 70.4414 104.855C70.4414 105.027 70.3789 105.174 70.2539 105.295C70.1328 105.416 69.9844 105.477 69.8086 105.477ZM70.2773 113H69.3164V107H70.2773V113ZM73.207 112.133H73.1836V115.76H72.2227V107H73.1836V108.055H73.207C73.6797 107.258 74.3711 106.859 75.2812 106.859C76.0547 106.859 76.6582 107.129 77.0918 107.668C77.5254 108.203 77.7422 108.922 77.7422 109.824C77.7422 110.828 77.498 111.633 77.0098 112.238C76.5215 112.84 75.8535 113.141 75.0059 113.141C74.2285 113.141 73.6289 112.805 73.207 112.133ZM73.1836 109.713V110.551C73.1836 111.047 73.3438 111.469 73.6641 111.816C73.9883 112.16 74.3984 112.332 74.8945 112.332C75.4766 112.332 75.9316 112.109 76.2598 111.664C76.5918 111.219 76.7578 110.6 76.7578 109.807C76.7578 109.139 76.6035 108.615 76.2949 108.236C75.9863 107.857 75.5684 107.668 75.041 107.668C74.4824 107.668 74.0332 107.863 73.6934 108.254C73.3535 108.641 73.1836 109.127 73.1836 109.713ZM82.0605 112.941C81.834 113.066 81.5352 113.129 81.1641 113.129C80.1133 113.129 79.5879 112.543 79.5879 111.371V107.82H78.5566V107H79.5879V105.535L80.5488 105.225V107H82.0605V107.82H80.5488V111.201C80.5488 111.604 80.6172 111.891 80.7539 112.062C80.8906 112.234 81.1172 112.32 81.4336 112.32C81.6758 112.32 81.8848 112.254 82.0605 112.121V112.941Z" fill="#3051FF"/>
<defs>
<linearGradient id="paint0_linear_8_130" x1="0" y1="66.3619" x2="438" y2="66.3619" gradientUnits="userSpaceOnUse">
<stop offset="0.20882" stop-color="#AEBBFF"/>
<stop offset="0.761186" stop-color="#3051FF"/>
</linearGradient>
<clipPath id="clip0_8_130">
<rect width="119" height="134" fill="white" transform="translate(319)"/>
</clipPath>
</defs>
</svg>
