<svg width="224" height="225" viewBox="0 0 224 225" fill="none" xmlns="http://www.w3.org/2000/svg">
<circle cx="112" cy="112" r="104" fill="#85EA2D"/>
<path fill-rule="evenodd" clip-rule="evenodd" d="M97.817 0.886006C71.597 4.19901 49.045 15.717 30.303 35.37C15.678 50.705 6.585 68.055 1.659 90.024C-0.553 99.889 -0.553 124.609 1.659 134.474C6.931 157.985 16.016 174.592 32.749 191.305C55.499 214.027 80.234 224.214 112.317 224.076C127.291 224.011 135.243 222.796 147.542 218.694C177.595 208.671 203.375 184.689 215.39 155.579C233.005 112.901 223.031 64.093 190.164 32.133C165.319 7.975 131.714 -3.39599 97.817 0.886006ZM136.492 13.598C173.152 23.297 200.248 50.358 210.565 87.574C213.66 98.74 213.66 125.758 210.565 136.924C205.286 155.968 196.007 171.908 182.66 184.861C169.481 197.652 154.941 205.883 136.492 210.997C125.326 214.092 98.308 214.092 87.142 210.997C49.94 200.684 23.382 174.126 13.069 136.924C9.974 125.758 9.974 98.74 13.069 87.574C18.355 68.504 27.659 52.533 40.974 39.674C56.229 24.939 73.176 16.041 93.226 12.237C103.96 10.201 126.309 10.904 136.492 13.598ZM67.817 55.953C63.739 57.374 59.573 61.432 58.361 65.164C57.81 66.861 56.923 74.864 56.389 82.95C55.131 102.011 54.327 103.686 45.817 104.974C44.038 105.243 43.817 106.044 43.817 112.222V119.167L47.188 119.856C54.196 121.29 56.254 126.168 56.293 141.45C56.306 146.51 56.812 152.958 57.417 155.779C59.456 165.286 66.735 170.323 77.347 169.567L81.817 169.249V163.249V157.249L77.021 156.942C71.003 156.558 70.778 156.021 70.025 140.249C69.357 126.271 67.531 120.03 62.693 115.192C59.482 111.981 59.414 111.767 61.287 110.765C63.929 109.351 67.925 102.181 68.818 97.249C69.217 95.049 69.855 87.929 70.237 81.428C70.979 68.774 71.427 67.793 76.485 67.764C81.691 67.734 82.317 66.97 82.317 60.642V54.749L76.567 54.828C73.405 54.871 69.467 55.378 67.817 55.953ZM141.984 55.416C141.617 55.782 141.317 58.707 141.317 61.916V67.749L145.567 67.764C147.905 67.773 150.435 68.171 151.191 68.65C152.15 69.257 152.952 74.009 153.85 84.386C155.254 100.637 156.931 106.405 161.325 110.102L164.113 112.448L161.179 115.217C156.002 120.104 155.081 123.171 153.873 139.558C152.696 155.518 152.286 156.683 147.817 156.747C142.053 156.831 141.317 157.636 141.317 163.866V169.749L146.567 169.743C153.788 169.736 158.454 168.261 161.56 165.005C165.515 160.859 166.226 157.97 167.243 141.894C167.757 133.786 168.716 125.966 169.376 124.518C170.525 121.997 173.526 120.228 177.817 119.541C179.595 119.257 179.817 118.448 179.817 112.249C179.817 106.044 179.597 105.243 177.817 104.974C169.19 103.668 168.315 101.82 167.248 82.659C166.169 63.275 164.441 59.339 155.633 56.198C151.621 54.767 143.12 54.28 141.984 55.416ZM78.491 107.063C73.706 112.157 77.337 119.749 84.559 119.749C88.625 119.749 92.317 116.179 92.317 112.249C92.317 111.022 91.384 108.833 90.244 107.384C87.476 103.864 81.646 103.705 78.491 107.063ZM106.317 106.749C103.448 109.618 103.575 116.116 106.54 118.192C109.608 120.342 115.603 120.195 117.662 117.92C120.197 115.119 119.861 108.244 117.094 106.306C113.973 104.119 108.731 104.335 106.317 106.749ZM133.39 107.384C129.16 112.761 132.452 119.749 139.215 119.749C143.847 119.749 147.317 116.477 147.317 112.109C147.317 105.262 137.641 101.98 133.39 107.384Z" fill="#173647"/>
</svg>
